<svg width="1536" height="860" viewBox="0 0 1536 860" fill="none" xmlns="http://www.w3.org/2000/svg">
<path fill-rule="evenodd" clip-rule="evenodd" d="M1492.5 163.5L1488.5 167.5V272.5H1395.75C1395.75 267.096 1395.32 261.551 1394.38 256C1392.88 247.17 1390.1 238.324 1385.76 230C1381.18 221.203 1374.85 212.99 1366.46 206C1358.07 199.014 1347.61 193.248 1334.75 189.339C1327.19 187.041 1318.8 185.384 1309.52 184.5L1313.75 166.5V161.301L1492.5 163.5ZM1481.75 266V247.5V169.5L1474.75 169.413L1410.25 168.615L1353.25 167.909L1320.25 167.5L1317.25 180C1337.22 181.065 1359.45 189.782 1376.03 206C1380.01 209.9 1383.67 214.234 1386.89 219C1395.44 231.642 1400.91 247.322 1401.25 266H1419.25H1463.25H1481.75Z" fill="#00E58A"/>
<path fill-rule="evenodd" clip-rule="evenodd" d="M1018.75 157.656L785.754 154.778L782.754 175.5C792.119 175.5 803.879 177.392 815.754 181.986C827.756 186.63 839.875 194.035 849.754 205.039C857.218 213.352 863.403 223.718 867.294 236.5C869.898 245.05 871.474 254.681 871.72 265.5C871.743 266.49 871.754 267.49 871.754 268.5H928.254C928.254 259.541 929.478 251.39 931.663 244C935.703 230.339 943.029 219.275 951.988 210.5C961.129 201.548 971.969 194.977 982.754 190.459C995.894 184.955 1008.95 182.5 1018.75 182.5V157.656ZM922.254 262.5H877.754C877.591 260.401 877.471 258.223 877.35 256.026C876.99 249.456 876.62 242.727 875.045 237.5L875.009 237.38C868.692 216.514 857.41 200.696 843.754 190.5C825.634 176.972 803.958 171.081 790.254 170.5L791.254 160.5L855.254 161.378L906.254 162.068L947.754 162.628L1012.25 163.5V174.5C990.688 176.896 973.555 184.468 960.254 194.528C949.639 202.556 942.319 209 935.254 220.5C932.8 224.494 930.524 229.025 928.754 233C924.393 242.794 922.892 254.751 922.254 262.5Z" fill="#00E58A"/>
<path fill-rule="evenodd" clip-rule="evenodd" d="M250.754 171V148.169L485.754 151.072L489.754 174.5C485.55 174.5 469.219 177.769 451.254 186.39C441.902 190.878 432.106 196.817 423.348 204.5C413.488 213.149 404.943 224.009 399.823 237.5C396.617 245.95 394.754 255.431 394.754 266.047L337.754 263.5V246.5C337.754 244.379 337.477 242.026 336.934 239.5C335.235 231.59 330.927 221.985 324.351 212.5C315.952 200.385 303.851 188.468 288.754 180.534C277.622 174.684 264.861 171 250.754 171ZM346.254 257L387.754 258.5C388.392 250.751 392.238 237.794 396.599 228C398.369 224.025 400.471 219.994 402.925 216C408.965 206.169 417.139 196.556 427.754 188.528C441.055 178.468 458.188 170.896 479.754 168.5L478.254 158L415.254 156.628L373.754 156.068L322.754 155.378L257.754 154.5V164.5C271.458 165.081 291.634 170.972 309.754 184.5C323.411 194.696 336.192 210.514 342.509 231.38L342.545 231.5C344.647 238.475 345.602 248.624 346.254 257Z" fill="#00E58A"/>
<path fill-rule="evenodd" clip-rule="evenodd" d="M30.5 261.5L35.5 145.5L219.754 147.786V171C209.879 171 200.088 172.865 190.754 176.221C177.252 181.075 164.709 189.047 154.263 199C145.516 207.334 138.24 217.056 133.101 227.5C127.783 238.308 124.754 249.888 124.754 261.5H30.5ZM213.254 165V154L174.254 153.546L104.338 152.731L42.2539 152.008L41.1861 174L37.9903 239.823L37.2539 254.99H83.2539H117.754C117.754 244.446 124.129 225.326 137.754 207.372C145.514 197.146 155.627 187.298 168.254 179.627C180.742 172.041 195.69 166.585 213.254 165Z" fill="#00E58A"/>
<path fill-rule="evenodd" clip-rule="evenodd" d="M785.754 154.778L782.754 175.5L780.254 196.5L777.754 210.5L759.754 212.5L758.754 208.5L757.754 196.5L753.754 177.31V154.383L785.754 154.778Z" fill="#FF3815"/>
<path fill-rule="evenodd" clip-rule="evenodd" d="M1045.75 157.99L1044.75 179.5V186.5L1039.75 202.5L1036.75 210.5H1017.75V201.5L1018.75 182.5V157.656L1045.75 157.99Z" fill="#FF3815"/>
<path fill-rule="evenodd" clip-rule="evenodd" d="M517.754 151.467V175.5L513.754 194.5L512.254 206.5L511.254 208.5L496.754 210.5L494.754 206.5L492.754 194.5L489.754 174.5L485.754 151.072L517.754 151.467Z" fill="#FF3815"/>
<path fill-rule="evenodd" clip-rule="evenodd" d="M219.754 147.786L250.754 148.169V171L250.137 193.549L249.838 204.5L249.783 206.5L230.254 211.5L229.254 207.919L225.652 193.919L219.754 171V147.786Z" fill="#FF3815"/>
<path fill-rule="evenodd" clip-rule="evenodd" d="M117.754 254.99H83.2539C84.7021 239.721 82.3575 226.56 77.9945 215.5C76.2902 211.179 74.2778 207.18 72.0631 203.5C99.8158 220.3 127.421 213.081 137.754 207.372C124.129 225.326 117.754 244.446 117.754 254.99Z" fill="#FF9500"/>
<path fill-rule="evenodd" clip-rule="evenodd" d="M37.2539 254.99L37.9903 239.823C63.4012 241.165 75.2477 224.167 77.9945 215.5C82.3575 226.56 84.7021 239.721 83.2539 254.99H37.2539Z" fill="#FF0084"/>
<path fill-rule="evenodd" clip-rule="evenodd" d="M37.9903 239.823L41.1861 174C47.8566 177.225 57.1386 183.86 65.3267 193.919C67.6934 196.826 69.9687 200.02 72.0631 203.5C74.2778 207.18 76.2902 211.179 77.9945 215.5C75.2477 224.167 63.4012 241.165 37.9903 239.823Z" fill="#D34EFF"/>
<path fill-rule="evenodd" clip-rule="evenodd" d="M41.1861 174L42.2539 152.008L77.9945 172.728C72.581 175.33 62.4685 183.211 65.3267 193.919C57.1386 183.86 47.8566 177.225 41.1861 174Z" fill="#00FF44"/>
<path fill-rule="evenodd" clip-rule="evenodd" d="M137.754 207.372C127.421 213.081 99.8158 220.3 72.0631 203.5C69.9687 200.02 67.6934 196.826 65.3267 193.919C62.4685 183.211 72.581 175.33 77.9945 172.728L104.338 188L137.754 207.372Z" fill="#FF0084"/>
<path fill-rule="evenodd" clip-rule="evenodd" d="M42.2539 152.008L104.338 152.731C102.143 157.987 99.8539 171.249 108.254 182.247C106.662 184.004 105.335 185.924 104.338 188L77.9945 172.728L42.2539 152.008Z" fill="#FF9500"/>
<path fill-rule="evenodd" clip-rule="evenodd" d="M168.254 179.627C155.627 187.298 145.514 197.146 137.754 207.372L104.338 188C105.335 185.924 106.662 184.004 108.254 182.247C122.759 166.232 159.243 163.743 168.254 179.627Z" fill="#D34EFF"/>
<path fill-rule="evenodd" clip-rule="evenodd" d="M104.338 152.731L174.254 153.546C168.921 156.364 160.254 165.525 168.254 179.627C159.243 163.743 122.759 166.232 108.254 182.247C99.8539 171.249 102.143 157.987 104.338 152.731Z" fill="#00FF44"/>
<path fill-rule="evenodd" clip-rule="evenodd" d="M213.254 154V165C195.69 166.585 180.742 172.041 168.254 179.627C160.254 165.525 168.921 156.364 174.254 153.546L213.254 154Z" fill="#FF0084"/>
<path fill-rule="evenodd" clip-rule="evenodd" d="M257.754 154.5L322.754 155.378C322.754 178.081 313.861 183.919 309.754 184.5C291.634 170.972 271.458 165.081 257.754 164.5V154.5Z" fill="#FF0084"/>
<path fill-rule="evenodd" clip-rule="evenodd" d="M322.754 155.378L373.754 156.068C344.084 181.22 341.46 227.305 342.509 231.38C336.192 210.514 323.411 194.696 309.754 184.5C313.861 183.919 322.754 178.081 322.754 155.378Z" fill="#D34EFF"/>
<path fill-rule="evenodd" clip-rule="evenodd" d="M387.754 258.5L346.254 257C345.602 248.624 344.647 238.475 342.545 231.5L342.509 231.38C341.46 227.305 344.084 181.22 373.754 156.068C390.154 179.614 395.818 213.833 396.599 228C392.238 237.794 388.392 250.751 387.754 258.5Z" fill="#FF0084"/>
<path fill-rule="evenodd" clip-rule="evenodd" d="M402.925 216C400.471 219.994 398.369 224.025 396.599 228C395.818 213.833 390.154 179.614 373.754 156.068L415.254 156.628C415.254 164.926 423.588 181.352 427.754 188.528C417.139 196.556 408.965 206.169 402.925 216Z" fill="#FF9500"/>
<path fill-rule="evenodd" clip-rule="evenodd" d="M479.754 168.5C458.188 170.896 441.055 178.468 427.754 188.528C423.588 181.352 415.254 164.926 415.254 156.628L478.254 158L479.754 168.5Z" fill="#D34EFF"/>
<path fill-rule="evenodd" clip-rule="evenodd" d="M524.254 157L589.254 157.878C589.254 180.581 581.04 187.419 576.933 188C558.813 174.472 537.958 169.081 524.254 168.5V157Z" fill="#FF9500"/>
<path fill-rule="evenodd" clip-rule="evenodd" d="M589.254 157.878L640.254 158.568C610.584 183.72 607.96 229.805 609.009 233.88C602.692 213.014 590.589 198.196 576.933 188C581.04 187.419 589.254 180.581 589.254 157.878Z" fill="#00FF44"/>
<path fill-rule="evenodd" clip-rule="evenodd" d="M655.754 257.5L613.254 257C612.602 248.624 611.147 240.975 609.045 234L609.009 233.88C607.96 229.805 610.584 183.72 640.254 158.568C656.654 182.114 662.318 216.333 663.099 230.5C658.738 240.294 656.392 249.751 655.754 257.5Z" fill="#D34EFF"/>
<path fill-rule="evenodd" clip-rule="evenodd" d="M669.425 218.5C666.971 222.494 664.869 226.525 663.099 230.5C662.318 216.333 656.654 182.114 640.254 158.568L681.754 159.128C681.754 167.426 690.087 183.852 694.254 191.028C683.639 199.056 675.465 208.669 669.425 218.5Z" fill="#FF0084"/>
<path fill-rule="evenodd" clip-rule="evenodd" d="M746.254 171C724.688 173.396 707.555 180.968 694.254 191.028C690.087 183.852 681.754 167.426 681.754 159.128L746.254 160V171Z" fill="#00FF44"/>
<path fill-rule="evenodd" clip-rule="evenodd" d="M843.754 190.5C825.634 176.972 803.958 171.081 790.254 170.5L791.254 160.5L855.254 161.378C851.018 167.829 848.864 171.108 847.427 174.676C845.94 178.367 845.219 182.365 843.754 190.5Z" fill="#00FF44"/>
<path fill-rule="evenodd" clip-rule="evenodd" d="M875.009 237.38C868.692 216.514 857.41 200.696 843.754 190.5C845.219 182.365 845.94 178.367 847.427 174.676C848.864 171.108 851.018 167.829 855.254 161.378L906.254 162.068C876.584 187.22 873.96 233.305 875.009 237.38Z" fill="#D34EFF"/>
<path fill-rule="evenodd" clip-rule="evenodd" d="M922.254 262.5H877.754C877.591 260.401 877.471 258.223 877.35 256.026C876.99 249.456 876.62 242.727 875.045 237.5L875.009 237.38C873.96 233.305 876.584 187.22 906.254 162.068C922.654 185.614 927.972 218.833 928.754 233C924.393 242.794 922.892 254.751 922.254 262.5Z" fill="#FF9500"/>
<path fill-rule="evenodd" clip-rule="evenodd" d="M906.254 162.068L947.754 162.628C959.254 173.5 960.254 179.5 960.254 194.528C949.639 202.556 942.319 209 935.254 220.5C932.8 224.494 930.524 229.025 928.754 233C927.972 218.833 922.654 185.614 906.254 162.068Z" fill="#D34EFF"/>
<path fill-rule="evenodd" clip-rule="evenodd" d="M947.754 162.628L1012.25 163.5V174.5C990.688 176.896 973.555 184.468 960.254 194.528C960.254 179.5 959.254 173.5 947.754 162.628Z" fill="#FF9500"/>
<path fill-rule="evenodd" clip-rule="evenodd" d="M1281.47 183.5C1272.24 184.555 1263.85 186.135 1256.25 188.193C1245.36 191.144 1236.08 195.079 1228.25 199.856C1218.42 205.859 1210.87 213.192 1205.25 221.578C1199.39 230.342 1195.64 240.255 1193.62 251C1192.34 257.791 1191.75 264.914 1191.75 272.289L1133.75 271.734C1133.75 260.344 1132.14 250.26 1129.33 241.351C1125.96 230.659 1120.86 221.66 1114.75 214.132C1109.38 207.497 1103.22 202.005 1096.77 197.5C1088.77 191.908 1080.32 187.839 1072.37 185C1061.38 181.075 1051.35 179.5 1044.75 179.5L1045.75 157.99L1280.75 160.893V167.5L1281.47 183.5ZM1140.25 265.5H1183.75C1183.86 264.18 1183.95 262.724 1184.05 261.168C1184.52 253.586 1185.14 243.626 1188.75 235.5C1195.66 220 1205.05 207 1220.25 195.5C1233.55 185.44 1252.25 180.5 1273.75 177.5V166.5L1209.25 165.628L1167.75 165.068L1116.75 164.378L1052.25 163.5L1051.75 173.5C1065.46 174.081 1087.13 179.972 1105.25 193.5C1118.91 203.696 1130.44 219.634 1136.75 240.5C1138.85 247.452 1139.6 257.061 1140.25 265.419L1140.25 265.5Z" fill="#00E58A"/>
<path fill-rule="evenodd" clip-rule="evenodd" d="M1052.25 163.5L1116.75 164.378C1112.52 170.829 1110.36 174.108 1108.93 177.676C1107.44 181.367 1106.72 185.365 1105.25 193.5C1087.13 179.972 1065.46 174.081 1051.75 173.5L1052.25 163.5Z" fill="#D34EFF"/>
<path fill-rule="evenodd" clip-rule="evenodd" d="M1116.75 164.378L1167.75 165.068C1138.08 190.22 1135.71 236.426 1136.75 240.5C1130.44 219.634 1118.91 203.696 1105.25 193.5C1106.72 185.365 1107.44 181.367 1108.93 177.676C1110.36 174.108 1112.52 170.829 1116.75 164.378Z" fill="#FF9500"/>
<path fill-rule="evenodd" clip-rule="evenodd" d="M1183.75 265.5H1140.25L1140.25 265.419C1139.6 257.061 1138.85 247.452 1136.75 240.5C1135.71 236.426 1138.08 190.22 1167.75 165.068C1184.15 188.614 1187.97 221.333 1188.75 235.5C1185.14 243.626 1184.52 253.586 1184.05 261.168C1183.95 262.724 1183.86 264.18 1183.75 265.5Z" fill="#00FF44"/>
<path fill-rule="evenodd" clip-rule="evenodd" d="M1220.25 195.5C1205.05 207 1195.66 220 1188.75 235.5C1187.97 221.333 1184.15 188.614 1167.75 165.068L1209.25 165.628C1220.28 176.053 1220.27 180.134 1220.26 193.7C1220.25 194.282 1220.25 194.882 1220.25 195.5Z" fill="#D34EFF"/>
<path fill-rule="evenodd" clip-rule="evenodd" d="M1273.75 177.5C1252.25 180.5 1233.55 185.44 1220.25 195.5C1220.25 194.882 1220.25 194.282 1220.26 193.7C1220.27 180.134 1220.28 176.053 1209.25 165.628L1273.75 166.5V177.5Z" fill="#FF0084"/>
<path fill-rule="evenodd" clip-rule="evenodd" d="M1320.25 167.5L1353.25 167.909C1352.85 175.582 1373.29 186.5 1383.55 191C1379.13 197.118 1376.81 202.622 1376.03 206C1359.45 189.782 1337.22 181.065 1317.25 180L1320.25 167.5Z" fill="#00FF44"/>
<path fill-rule="evenodd" clip-rule="evenodd" d="M1353.25 167.909L1410.25 168.615C1397.5 175.159 1388.96 183.536 1383.55 191C1373.29 186.5 1352.85 175.582 1353.25 167.909Z" fill="#D34EFF"/>
<path fill-rule="evenodd" clip-rule="evenodd" d="M1474.75 169.413L1438.28 190L1426.25 196.786L1386.89 219C1383.67 214.234 1380.01 209.9 1376.03 206C1376.81 202.622 1379.13 197.118 1383.55 191C1388.96 183.536 1397.5 175.159 1410.25 168.615L1474.75 169.413Z" fill="#FF9500"/>
<path fill-rule="evenodd" clip-rule="evenodd" d="M1426.25 196.786C1426.72 205.376 1426.63 222.983 1424.15 241.5C1423.05 249.724 1421.47 258.127 1419.25 266H1401.25C1400.91 247.322 1395.44 231.642 1386.89 219L1426.25 196.786Z" fill="#D34EFF"/>
<path fill-rule="evenodd" clip-rule="evenodd" d="M1448.94 212.5C1448.74 217.322 1448.73 223.53 1449.13 230C1446.25 235 1438.63 243.5 1424.15 241.5C1426.63 222.983 1426.72 205.376 1426.25 196.786L1438.28 190C1441.17 198.379 1444.88 205.888 1448.94 212.5Z" fill="#FF0084"/>
<path fill-rule="evenodd" clip-rule="evenodd" d="M1449.13 230C1450.14 246.565 1453.76 264.849 1463.25 266H1419.25C1421.47 258.127 1423.05 249.724 1424.15 241.5C1438.63 243.5 1446.25 235 1449.13 230Z" fill="#FF9500"/>
<path fill-rule="evenodd" clip-rule="evenodd" d="M1481.75 247.5C1474.68 243.355 1460 230.506 1448.94 212.5C1444.88 205.888 1441.17 198.379 1438.28 190L1474.75 169.413L1481.75 169.5V247.5Z" fill="#00FF44"/>
<path fill-rule="evenodd" clip-rule="evenodd" d="M1463.25 266C1453.76 264.849 1450.14 246.565 1449.13 230C1448.73 223.53 1448.74 217.322 1448.94 212.5C1460 230.506 1474.68 243.355 1481.75 247.5V266H1463.25Z" fill="#D34EFF"/>
<path fill-rule="evenodd" clip-rule="evenodd" d="M126.754 579.5L118.754 565.5H314.754L312.754 581.5L310.254 581.473L288.754 581.242L156.754 579.823L131.254 579.548L126.754 579.5Z" fill="#452DB3"/>
<path fill-rule="evenodd" clip-rule="evenodd" d="M131.254 579.548L156.754 579.823L150.754 589.5V629.5H136.754V586.5L131.254 579.548Z" fill="#452DB3"/>
<path fill-rule="evenodd" clip-rule="evenodd" d="M288.754 581.242L310.254 581.473L305.754 588.5L304.754 630.5H292.754V587.5L288.754 581.242Z" fill="#452DB3"/>
<path fill-rule="evenodd" clip-rule="evenodd" d="M422.754 632.5H407.754V593.5L400.754 581.5H431.254L422.754 592.5V632.5Z" fill="#452DB3"/>
<path fill-rule="evenodd" clip-rule="evenodd" d="M431.254 581.5H400.754H394.754V567.5H589.754L583.754 581.5H581.754H558.254H431.254Z" fill="#452DB3"/>
<path fill-rule="evenodd" clip-rule="evenodd" d="M558.254 581.5H581.754L574.754 592.5V633.5H564.754V588.5L558.254 581.5Z" fill="#452DB3"/>
<path fill-rule="evenodd" clip-rule="evenodd" d="M679.754 587.5L676.754 582.5H700.254L694.754 594.5L693.754 631.5H679.754V587.5Z" fill="#452DB3"/>
<path fill-rule="evenodd" clip-rule="evenodd" d="M700.254 582.5H676.754H674.754L667.754 567.5L861.754 568.5V582.5H850.754H828.754H700.254Z" fill="#452DB3"/>
<path fill-rule="evenodd" clip-rule="evenodd" d="M828.754 582.5H850.754L844.754 593.5V634.5H831.754V588.5L828.754 582.5Z" fill="#452DB3"/>
<path fill-rule="evenodd" clip-rule="evenodd" d="M944.254 584.3L945.754 582.5H966.754L961.754 591.5V633.5H949.754V593.5L944.254 584.3Z" fill="#452DB3"/>
<path fill-rule="evenodd" clip-rule="evenodd" d="M966.754 582.5H945.754L936.754 567.5L1131.75 568.5L1122.75 582.5H1119.25H1096.75H966.754Z" fill="#452DB3"/>
<path fill-rule="evenodd" clip-rule="evenodd" d="M1096.75 582.5H1119.25L1110.75 591.5L1109.75 637.5H1097.75L1099.75 591.5L1096.75 582.5Z" fill="#452DB3"/>
<path fill-rule="evenodd" clip-rule="evenodd" d="M1213.75 633.5V585.5H1235.75L1227.75 602.5V633.5H1213.75Z" fill="#452DB3"/>
<path fill-rule="evenodd" clip-rule="evenodd" d="M1235.75 585.5H1213.75H1212.75L1206.75 570.5H1397.25L1389.75 585.5H1384.75H1359.75H1235.75Z" fill="#452DB3"/>
<path fill-rule="evenodd" clip-rule="evenodd" d="M1206.75 570.5L1212.75 585.5L1207.75 590.5H1205.75L1197.75 581.5L1206.75 570.5Z" fill="#452DB3"/>
<path fill-rule="evenodd" clip-rule="evenodd" d="M1359.75 585.5H1384.75L1376.75 595.5V634.5H1364.75L1366.75 596.5L1359.75 585.5Z" fill="#452DB3"/>
<path fill-rule="evenodd" clip-rule="evenodd" d="M1109.25 271.5C1112.09 277.333 1117.75 289.1 1117.75 289.5H1113.75L1109.48 293.372L1103.75 286.5V284.5L1109.25 271.5Z" fill="#FF3815"/>
<path fill-rule="evenodd" clip-rule="evenodd" d="M871.754 268.5H928.254H949.754H951.754V271.5L939.754 287.5H932.754V288.5L864.754 286.841L853.754 286.573L848.254 268.5H871.754Z" fill="#FF3815"/>
<path fill-rule="evenodd" clip-rule="evenodd" d="M848.254 268.5L853.754 286.573L850.754 286.5L850.671 292.5L840.754 278.5L846.636 268.5H848.254Z" fill="#FF3815"/>
<path fill-rule="evenodd" clip-rule="evenodd" d="M604.754 265.702L663.754 266.269L685.754 266.481L687.754 266.5L681.754 282.5L674.754 281.5H670.754H598.754H584.754L583.754 280.5V265.5L589.254 265.553L604.754 265.702Z" fill="#FF3815"/>
<path fill-rule="evenodd" clip-rule="evenodd" d="M337.754 263.5L394.754 266.047L418.754 267.12L427.254 267.5L419.754 285.5H416.754H398.754L332.754 282.5H318.754V278.5L313.754 266.5L319.754 260V263.5H337.754Z" fill="#FF3815"/>
<path fill-rule="evenodd" clip-rule="evenodd" d="M30.5 261.5H124.754H148.754H151.254L147.254 281.5H146.754H123.754H30.5V277L21.5 264.5V261.5H30.5Z" fill="#FF3815"/>
<path fill-rule="evenodd" clip-rule="evenodd" d="M147.254 281.5L151.254 261.5L157.125 274.5L158.254 277L152.754 284.5L147.254 281.5Z" fill="#FF3815"/>
<path fill-rule="evenodd" clip-rule="evenodd" d="M1372.75 272.5L1377.33 287L1365.75 295.5L1360.75 290.5L1364.75 284.5L1372.75 272.5Z" fill="#FF3815"/>
<path fill-rule="evenodd" clip-rule="evenodd" d="M1133.75 271.734L1191.75 272.289L1208.75 272.452L1213.75 272.5V274.5L1208.75 289.5H1194.75L1130.75 288.5L1129.75 289.5H1117.75C1117.75 289.1 1112.09 277.333 1109.25 271.5L1113.75 271.543L1133.75 271.734Z" fill="#FF3815"/>
<path fill-rule="evenodd" clip-rule="evenodd" d="M945.754 582.5L944.254 584.3L940.754 588.5L934.754 580.5L936.754 567.5L945.754 582.5Z" fill="#452DB3"/>
<path fill-rule="evenodd" clip-rule="evenodd" d="M583.754 581.5L589.754 567.5L593.754 581.5H583.754Z" fill="#452DB3"/>
<path fill-rule="evenodd" clip-rule="evenodd" d="M312.754 581.5L314.754 565.5L321.754 578.5L315.754 586.5L312.754 581.5Z" fill="#452DB3"/>
<path fill-rule="evenodd" clip-rule="evenodd" d="M1313.75 166.5L1309.52 184.5L1305.75 200.5L1303.99 203.5L1298.7 212.5L1295.75 217.5L1279.75 218V216L1282.25 201L1281.47 183.5L1280.75 167.5V160.893L1313.75 161.301V166.5Z" fill="#FF3815"/>
<path fill-rule="evenodd" clip-rule="evenodd" d="M36.5 111.5L35.7542 54.5L69.2539 55.0314C97.3213 62.2063 106.949 98.3275 108.254 115.491L97.7542 115.379L36.5 114.714V111.5Z" fill="#0F95B3"/>
<path fill-rule="evenodd" clip-rule="evenodd" d="M108.254 115.491C106.949 98.3275 97.3213 62.2063 69.2539 55.0314L219.754 57.4186L164.13 116.09L108.254 115.491Z" fill="#00FF44"/>
<path fill-rule="evenodd" clip-rule="evenodd" d="M164.13 116.09L219.754 57.4186L282.754 58.4179C284.754 70.7786 287.554 99.8723 282.754 117.361L275.254 117.281L256.254 117.077L201.754 116.493L164.13 116.09Z" fill="#D34EFF"/>
<path fill-rule="evenodd" clip-rule="evenodd" d="M282.754 117.361C287.554 99.8723 284.754 70.7786 282.754 58.4179L410.254 60.4403C399.33 71.6881 396.599 103.888 396.599 118.581L367.754 118.272L282.754 117.361Z" fill="#0CDCE3"/>
<path fill-rule="evenodd" clip-rule="evenodd" d="M396.599 118.581C396.599 103.888 399.33 71.6881 410.254 60.4403L517.754 62.1455C519.921 72.2637 521.854 97.9642 512.254 119.821L474.254 119.414L396.599 118.581Z" fill="#FF1596"/>
<path fill-rule="evenodd" clip-rule="evenodd" d="M512.254 119.821C521.854 97.9642 519.921 72.2637 517.754 62.1455L584.754 63.2083C591.421 63.314 602.554 74.9593 593.754 120.694L564.754 120.383L512.254 119.821Z" fill="#D34EFF"/>
<path fill-rule="evenodd" clip-rule="evenodd" d="M593.754 120.694C602.554 74.9593 591.421 63.314 584.754 63.2083L677.754 64.6834C669.972 79.2408 655.278 110.963 658.754 121.391L634.254 121.128L593.754 120.694Z" fill="#0F95B3"/>
<path fill-rule="evenodd" clip-rule="evenodd" d="M658.754 121.391C655.278 110.963 669.972 79.2408 677.754 64.6834L701.754 65.0641C692.754 80.3761 676.154 113.127 681.754 121.637L658.754 121.391Z" fill="#00FF44"/>
<path fill-rule="evenodd" clip-rule="evenodd" d="M681.754 121.637C676.154 113.127 692.754 80.3761 701.754 65.0641L772.754 66.1903C755.554 75.9426 769.754 107.913 779.004 122.68L753.254 122.404L681.754 121.637Z" fill="#FF7F00"/>
<path fill-rule="evenodd" clip-rule="evenodd" d="M880.754 123.77L804.754 122.955C808.754 99.7911 799.421 75.6876 794.254 66.5314L928.754 68.6648L914.254 124.129L880.754 123.77Z" fill="#FF1596"/>
<path fill-rule="evenodd" clip-rule="evenodd" d="M996.754 125.013L964.754 124.67C965.69 116.87 962.466 110.092 958.77 102.321C954.567 93.4841 949.754 83.3636 949.754 68.9979L1018.75 70.0924C1073.25 87 1077.49 114.087 1077.25 125.876L996.754 125.013Z" fill="#0F95B3"/>
<path fill-rule="evenodd" clip-rule="evenodd" d="M914.254 124.129L928.754 68.6648L949.754 68.9979C949.754 83.3636 954.567 93.4841 958.77 102.321C962.466 110.092 965.69 116.87 964.754 124.67L939.504 124.4L914.254 124.129Z" fill="#D34EFF"/>
<path fill-rule="evenodd" clip-rule="evenodd" d="M1077.25 125.876C1077.49 114.087 1073.25 87 1018.75 70.0924L1130.75 71.869C1136.42 82.3787 1144.35 108.008 1130.75 126.449L1093.75 126.053L1077.25 125.876Z" fill="#FF7F00"/>
<path fill-rule="evenodd" clip-rule="evenodd" d="M1130.75 126.449C1144.35 108.008 1136.42 82.3787 1130.75 71.869L1252.25 73.7962L1234.25 127.558L1147.25 126.626L1130.75 126.449Z" fill="#0F95B3"/>
<path fill-rule="evenodd" clip-rule="evenodd" d="M1234.25 127.558L1252.25 73.7962L1286.25 74.3355C1281.09 84.7237 1274.85 110.034 1291.25 128.169L1252.25 127.751L1234.25 127.558Z" fill="#00FF44"/>
<path fill-rule="evenodd" clip-rule="evenodd" d="M1420.63 129.556L1395.75 76.0724L1485.75 77.5L1487.03 105.5L1487.5 130.264L1454.25 129.916L1420.63 129.556Z" fill="#D34EFF"/>
<path fill-rule="evenodd" clip-rule="evenodd" d="M1492.5 143.5L1439.25 143.069C1457.65 139.451 1456.92 132.793 1454.25 129.916L1487.5 130.264L1509.5 130.5V133.5L1492.5 143.5Z" fill="#FF1596"/>
<path fill-rule="evenodd" clip-rule="evenodd" d="M1439.25 143.069L1406.75 142.802L1387 129.195L1420.63 129.556L1454.25 129.916C1456.92 132.793 1457.65 139.451 1439.25 143.069Z" fill="#0F95B3"/>
<path fill-rule="evenodd" clip-rule="evenodd" d="M1291.25 128.169C1274.85 110.034 1281.09 84.7237 1286.25 74.3355L1395.75 76.0724L1420.63 129.556L1387 129.195L1319.75 128.475L1291.25 128.169Z" fill="#FF7F00"/>
<path fill-rule="evenodd" clip-rule="evenodd" d="M1406.75 142.802L1334.25 142.207C1334.42 140.305 1331.75 134.895 1319.75 128.475L1387 129.195L1406.75 142.802Z" fill="#00FF44"/>
<path fill-rule="evenodd" clip-rule="evenodd" d="M1252.25 127.751L1291.25 128.169L1319.75 128.475C1331.75 134.895 1334.42 140.305 1334.25 142.207L1270.75 141.686L1264.37 141.634C1259.51 140.574 1254.12 136.958 1252.25 127.751Z" fill="#0CDCE3"/>
<path fill-rule="evenodd" clip-rule="evenodd" d="M1147.25 126.626L1234.25 127.558L1252.25 127.751C1254.12 136.958 1259.51 140.574 1264.37 141.634L1160.75 140.783C1150.75 136.957 1147.59 129.751 1147.25 126.626Z" fill="#D34EFF"/>
<path fill-rule="evenodd" clip-rule="evenodd" d="M880.754 123.77L914.254 124.129L939.504 124.4L964.754 124.67L996.754 125.013L1077.25 125.876L1093.75 126.053L1130.75 126.449L1147.25 126.626C1147.59 129.751 1150.75 136.957 1160.75 140.783L1063.25 139.983L983.754 139.33L888.254 138.547C877.854 135.838 878.921 127.567 880.754 123.77Z" fill="#00FF44"/>
<path fill-rule="evenodd" clip-rule="evenodd" d="M779.004 122.68C769.754 107.913 755.554 75.9426 772.754 66.1903L794.254 66.5314C799.421 75.6876 808.754 99.7911 804.754 122.955L779.004 122.68Z" fill="#D34EFF"/>
<path fill-rule="evenodd" clip-rule="evenodd" d="M634.254 121.128L658.754 121.391L681.754 121.637L753.254 122.404C772.054 127.681 779.421 134.776 780.754 137.664L611.754 136.277C623.754 133.655 631.754 125.086 634.254 121.128Z" fill="#D34EFF"/>
<path fill-rule="evenodd" clip-rule="evenodd" d="M753.254 122.404L779.004 122.68L804.754 122.955L880.754 123.77C878.921 127.567 877.854 135.838 888.254 138.547L780.754 137.664C779.421 134.776 772.054 127.681 753.254 122.404Z" fill="#0F95B3"/>
<path fill-rule="evenodd" clip-rule="evenodd" d="M564.754 120.383L593.754 120.694L634.254 121.128C631.754 125.086 623.754 133.655 611.754 136.277L577.754 135.998L543.754 135.719C540.421 133.402 539.954 127.09 564.754 120.383Z" fill="#FF1596"/>
<path fill-rule="evenodd" clip-rule="evenodd" d="M474.254 119.414L512.254 119.821L564.754 120.383C539.954 127.09 540.421 133.402 543.754 135.719L475.754 135.161L474.254 119.414Z" fill="#00FF44"/>
<path fill-rule="evenodd" clip-rule="evenodd" d="M1492.5 163.5L1313.75 161.301L1280.75 160.893L1045.75 157.99L1018.75 157.656L785.754 154.778L753.754 154.383L517.754 151.467L485.754 151.072L250.754 148.169L219.754 147.786L35.5 145.5L30.5 139.5V131.5L96.7542 132.05L172.254 132.67L271.754 133.486L282.754 133.577L386.254 134.426L475.754 135.161L543.754 135.719L577.754 135.998L611.754 136.277L780.754 137.664L888.254 138.547L983.754 139.33L1063.25 139.983L1160.75 140.783L1264.37 141.634C1266.79 142.162 1269.09 142.054 1270.75 141.686L1334.25 142.207L1406.75 142.802L1439.25 143.069L1492.5 143.5V163.5Z" fill="#452DB3"/>
<path fill-rule="evenodd" clip-rule="evenodd" d="M275.254 117.281L282.754 117.361L367.754 118.272L386.254 134.426L282.754 133.577C295.154 128.715 282.921 120.687 275.254 117.281Z" fill="#00FF44"/>
<path fill-rule="evenodd" clip-rule="evenodd" d="M367.754 118.272L396.599 118.581L474.254 119.414L475.754 135.161L386.254 134.426L367.754 118.272Z" fill="#D34EFF"/>
<path fill-rule="evenodd" clip-rule="evenodd" d="M201.754 116.493L256.254 117.077C268.088 120.052 287.754 127.497 271.754 133.486L172.254 132.67C169.454 121.734 190.754 117.329 201.754 116.493Z" fill="#0F95B3"/>
<path fill-rule="evenodd" clip-rule="evenodd" d="M256.254 117.077L275.254 117.281C282.921 120.687 295.154 128.715 282.754 133.577L271.754 133.486C287.754 127.497 268.088 120.052 256.254 117.077Z" fill="#FF7F00"/>
<path fill-rule="evenodd" clip-rule="evenodd" d="M97.7542 115.379L108.254 115.491L164.13 116.09L201.754 116.493C190.754 117.329 169.454 121.734 172.254 132.67L96.7542 132.05C93.2542 128.867 88.5542 121.076 97.7542 115.379Z" fill="#FF1596"/>
<path fill-rule="evenodd" clip-rule="evenodd" d="M36.5 114.714L97.7542 115.379C88.5542 121.076 93.2542 128.867 96.7542 132.05L30.5 131.5L16.5 114.5L36.5 114.714Z" fill="#D34EFF"/>
<path fill-rule="evenodd" clip-rule="evenodd" d="M35.7542 54.5L36.5 111.5L4.84091 12L17.7542 27.5L30.7542 44.5L35.7542 54.5Z" fill="#FF7F00"/>
<path fill-rule="evenodd" clip-rule="evenodd" d="M124.754 261.5C124.754 249.888 127.783 238.308 133.101 227.5L154.263 239.823C150.694 246.914 148.754 254.278 148.754 261.5H124.754Z" fill="#FF0084"/>
<path fill-rule="evenodd" clip-rule="evenodd" d="M133.101 227.5C138.24 217.056 145.516 207.334 154.263 199L172.254 217.335C164.46 224.08 158.313 231.777 154.263 239.823L133.101 227.5Z" fill="#FF9500"/>
<path fill-rule="evenodd" clip-rule="evenodd" d="M151.254 261.5H148.754C148.754 254.278 150.694 246.914 154.263 239.823L164.13 245C159.927 252.279 158.254 258.563 158.254 261.5L157.125 274.5L151.254 261.5Z" fill="#D34EFF"/>
<path fill-rule="evenodd" clip-rule="evenodd" d="M154.263 239.823C158.313 231.777 164.46 224.08 172.254 217.335L184.754 222.822C174.874 229.682 168.273 237.825 164.13 245L154.263 239.823Z" fill="#00FF44"/>
<path fill-rule="evenodd" clip-rule="evenodd" d="M154.263 199C164.709 189.047 177.252 181.075 190.754 176.221L204.277 199C191.94 203.323 181.049 209.724 172.254 217.335L154.263 199Z" fill="#FF0084"/>
<path fill-rule="evenodd" clip-rule="evenodd" d="M184.754 222.822L172.254 217.335C181.049 209.724 191.94 203.323 204.277 199L211.254 210.902C200.547 213.674 191.814 217.921 184.754 222.822Z" fill="#0F95B3"/>
<path fill-rule="evenodd" clip-rule="evenodd" d="M190.754 176.221C200.088 172.865 209.879 171 219.754 171L225.652 193.919C218.167 194.901 211.007 196.642 204.277 199L190.754 176.221Z" fill="#00FF44"/>
<path fill-rule="evenodd" clip-rule="evenodd" d="M225.652 193.919L229.254 207.919C222.712 208.455 216.726 209.486 211.254 210.902L204.277 199C211.007 196.642 218.167 194.901 225.652 193.919Z" fill="#D34EFF"/>
<path fill-rule="evenodd" clip-rule="evenodd" d="M250.754 171C264.861 171 277.622 174.684 288.754 180.534L279.254 201.418C270.581 197.509 260.785 194.684 250.137 193.549L250.754 171Z" fill="#FF9500"/>
<path fill-rule="evenodd" clip-rule="evenodd" d="M249.838 204.5L250.137 193.549C260.785 194.684 270.581 197.509 279.254 201.418L273.526 211.5C266.092 208.432 258.105 206.026 249.838 204.5Z" fill="#00FF44"/>
<path fill-rule="evenodd" clip-rule="evenodd" d="M288.754 180.534C303.851 188.468 315.952 200.385 324.351 212.5L306.953 221C300.054 213.522 290.617 206.54 279.254 201.418L288.754 180.534Z" fill="#00FF44"/>
<path fill-rule="evenodd" clip-rule="evenodd" d="M273.526 211.5L279.254 201.418C290.617 206.54 300.054 213.522 306.953 221L299.254 226.441C292.024 220.654 283.247 215.511 273.526 211.5Z" fill="#0CDCE3"/>
<path fill-rule="evenodd" clip-rule="evenodd" d="M324.351 212.5C330.927 221.985 335.235 231.59 336.934 239.5L319.754 246.5C319.392 238.705 314.823 229.53 306.953 221L324.351 212.5Z" fill="#0F95B3"/>
<path fill-rule="evenodd" clip-rule="evenodd" d="M299.254 226.441L306.953 221C314.823 229.53 319.392 238.705 319.754 246.5V260C319.754 248.572 311.854 236.527 299.254 226.441Z" fill="#FF0084"/>
<path fill-rule="evenodd" clip-rule="evenodd" d="M337.754 246.5V263.5H319.754V260V246.5L336.934 239.5C337.477 242.026 337.754 244.379 337.754 246.5Z" fill="#FF9500"/>
<path fill-rule="evenodd" clip-rule="evenodd" d="M394.754 266.047C394.754 255.431 396.617 245.95 399.823 237.5L422.679 245C420.191 251.669 418.754 259.035 418.754 267.12L394.754 266.047Z" fill="#D34EFF"/>
<path fill-rule="evenodd" clip-rule="evenodd" d="M399.823 237.5C404.943 224.009 413.488 213.149 423.348 204.5L438.29 221C431.725 227.669 426.168 235.649 422.679 245L399.823 237.5Z" fill="#FF0084"/>
<path fill-rule="evenodd" clip-rule="evenodd" d="M423.348 204.5C432.106 196.817 441.902 190.878 451.254 186.39L460.632 204.5C452.887 208.651 445.054 214.13 438.29 221L423.348 204.5Z" fill="#FF9500"/>
<path fill-rule="evenodd" clip-rule="evenodd" d="M422.679 245C426.168 235.649 431.725 227.669 438.29 221L443.754 229.236C437.093 234.704 431.036 241.134 426.428 248.5L422.679 245Z" fill="#00FF44"/>
<path fill-rule="evenodd" clip-rule="evenodd" d="M418.754 267.12C418.754 259.035 420.191 251.669 422.679 245L426.428 248.5C422.888 254.158 420.203 260.369 418.754 267.12Z" fill="#0CDCE3"/>
<path fill-rule="evenodd" clip-rule="evenodd" d="M438.29 221C445.054 214.13 452.887 208.651 460.632 204.5L465.754 215.228C458.406 218.816 450.747 223.496 443.754 229.236L438.29 221Z" fill="#0F95B3"/>
<path fill-rule="evenodd" clip-rule="evenodd" d="M492.754 194.5L494.754 206.5C488.606 206.5 477.582 209.451 465.754 215.228L460.632 204.5C473.244 197.74 485.62 194.5 492.754 194.5Z" fill="#FF9500"/>
<path fill-rule="evenodd" clip-rule="evenodd" d="M451.254 186.39C469.219 177.769 485.55 174.5 489.754 174.5L492.754 194.5C485.62 194.5 473.244 197.74 460.632 204.5L451.254 186.39Z" fill="#00FF44"/>
<path fill-rule="evenodd" clip-rule="evenodd" d="M512.254 206.5L513.754 194.5C520.134 194.5 530.609 196.603 541.754 201.319L536.085 210.5C528.905 207.983 520.97 206.5 512.254 206.5Z" fill="#D34EFF"/>
<path fill-rule="evenodd" clip-rule="evenodd" d="M517.754 175.5C525.772 175.5 537.495 177.626 549.754 182.754L541.754 201.319C530.609 196.603 520.134 194.5 513.754 194.5L517.754 175.5Z" fill="#FF0084"/>
<path fill-rule="evenodd" clip-rule="evenodd" d="M536.085 210.5L541.754 201.319C552.606 205.912 564.094 212.982 573.053 223L564.754 228.576C557.044 221.141 547.523 214.509 536.085 210.5Z" fill="#00FF44"/>
<path fill-rule="evenodd" clip-rule="evenodd" d="M549.754 182.754C561.927 187.846 574.628 195.898 584.754 207.768L573.053 223C564.094 212.982 552.606 205.912 541.754 201.319L549.754 182.754Z" fill="#FF9500"/>
<path fill-rule="evenodd" clip-rule="evenodd" d="M564.754 228.576L573.053 223C578.249 228.811 582.595 235.614 585.473 243.5L578.489 245C574.801 239.555 570.236 233.862 564.754 228.576Z" fill="#0F95B3"/>
<path fill-rule="evenodd" clip-rule="evenodd" d="M584.754 207.768C590.942 215.021 596.167 223.7 599.724 234L585.473 243.5C582.595 235.614 578.249 228.811 573.053 223L584.754 207.768Z" fill="#FF0084"/>
<path fill-rule="evenodd" clip-rule="evenodd" d="M578.489 245L585.473 243.5C587.874 250.079 589.254 257.412 589.254 265.553C587.538 260.7 583.991 253.125 578.489 245Z" fill="#D34EFF"/>
<path fill-rule="evenodd" clip-rule="evenodd" d="M599.724 234C602.908 243.221 604.754 253.742 604.754 265.702L589.254 265.553C589.254 257.412 587.874 250.079 585.473 243.5L599.724 234Z" fill="#00FF44"/>
<path fill-rule="evenodd" clip-rule="evenodd" d="M663.754 266.269C663.754 257.263 665.035 249.018 667.309 241.5L688.412 245C686.703 251.381 685.754 258.517 685.754 266.481L663.754 266.269Z" fill="#00FF44"/>
<path fill-rule="evenodd" clip-rule="evenodd" d="M667.309 241.5C671.403 227.966 678.716 216.789 687.573 207.768L701.754 219.804C695.866 226.446 691.158 234.747 688.412 245L667.309 241.5Z" fill="#FF0084"/>
<path fill-rule="evenodd" clip-rule="evenodd" d="M685.754 266.481C685.754 258.517 686.703 251.381 688.412 245C691.158 234.747 695.866 226.446 701.754 219.804L709.306 226.5C695.02 236.417 685.754 249.907 685.754 266.481Z" fill="#0CDCE3"/>
<path fill-rule="evenodd" clip-rule="evenodd" d="M517.754 151.467L753.754 154.383V177.31C745.211 177.31 732.969 179.92 720.254 185.527C708.982 190.497 697.339 197.821 687.573 207.768C678.716 216.789 671.403 227.966 667.309 241.5C665.035 249.018 663.754 257.263 663.754 266.269L604.754 265.702C604.754 253.742 602.908 243.221 599.724 234C596.167 223.7 590.942 215.021 584.754 207.768C574.628 195.898 561.927 187.846 549.754 182.754C537.495 177.626 525.772 175.5 517.754 175.5V151.467ZM613.254 257L655.754 257.5C656.392 249.751 658.738 240.294 663.099 230.5C664.869 226.525 666.971 222.494 669.425 218.5C675.465 208.669 683.639 199.056 694.254 191.028C707.555 180.968 724.688 173.396 746.254 171V160L681.754 159.128L640.254 158.568L589.254 157.878L524.254 157V168.5C537.958 169.081 558.813 174.472 576.933 188C590.589 198.196 602.692 213.014 609.009 233.88L609.045 234C611.147 240.975 612.602 248.624 613.254 257Z" fill="#00E58A"/>
<path fill-rule="evenodd" clip-rule="evenodd" d="M701.754 219.804L687.573 207.768C697.339 197.821 708.982 190.497 720.254 185.527L728.098 202C718.488 205.686 709.183 211.424 701.754 219.804Z" fill="#FF9500"/>
<path fill-rule="evenodd" clip-rule="evenodd" d="M709.306 226.5L701.754 219.804C709.183 211.424 718.488 205.686 728.098 202L731.254 215.328C723.179 218.299 715.734 222.038 709.306 226.5Z" fill="#00FF44"/>
<path fill-rule="evenodd" clip-rule="evenodd" d="M753.754 177.31L757.754 196.5C748.77 196.5 738.264 198.101 728.098 202L720.254 185.527C732.969 179.92 745.211 177.31 753.754 177.31Z" fill="#D34EFF"/>
<path fill-rule="evenodd" clip-rule="evenodd" d="M757.754 196.5L758.754 208.5C749.184 209.867 739.861 212.161 731.254 215.328L728.098 202C738.264 198.101 748.77 196.5 757.754 196.5Z" fill="#FF0084"/>
<path fill-rule="evenodd" clip-rule="evenodd" d="M777.754 210.5L780.254 196.5C787.118 196.5 795.823 198.79 804.754 202.669L799.626 215.328C791.858 212.309 784.272 210.5 777.754 210.5Z" fill="#0F95B3"/>
<path fill-rule="evenodd" clip-rule="evenodd" d="M782.754 175.5C792.119 175.5 803.879 177.392 815.754 181.986L804.754 202.669C795.823 198.79 787.118 196.5 780.254 196.5L782.754 175.5Z" fill="#00FF44"/>
<path fill-rule="evenodd" clip-rule="evenodd" d="M815.754 181.986C827.756 186.63 839.875 194.035 849.754 205.039L834.754 221.968C826.224 214.085 815.331 207.263 804.754 202.669L815.754 181.986Z" fill="#FF9500"/>
<path fill-rule="evenodd" clip-rule="evenodd" d="M799.626 215.328L804.754 202.669C815.331 207.263 826.224 214.085 834.754 221.968L827.657 230.989C819.158 224.669 809.252 219.069 799.626 215.328Z" fill="#FF0084"/>
<path fill-rule="evenodd" clip-rule="evenodd" d="M849.754 205.039C857.218 213.352 863.403 223.718 867.294 236.5L849.535 243C847.222 235.703 841.793 228.474 834.754 221.968L849.754 205.039Z" fill="#D34EFF"/>
<path fill-rule="evenodd" clip-rule="evenodd" d="M827.657 230.989L834.754 221.968C841.793 228.474 847.222 235.703 849.535 243L843.74 246C839.656 240.912 834.055 235.747 827.657 230.989Z" fill="#00FF44"/>
<path fill-rule="evenodd" clip-rule="evenodd" d="M867.294 236.5C869.898 245.05 871.474 254.681 871.72 265.5L850.754 261.5V250.5C850.754 248.01 850.327 245.501 849.535 243L867.294 236.5Z" fill="#FF0084"/>
<path fill-rule="evenodd" clip-rule="evenodd" d="M843.74 246L849.535 243C850.327 245.501 850.754 248.01 850.754 250.5V261.5C850.754 256.824 848.12 251.457 843.74 246Z" fill="#0CDCE3"/>
<path fill-rule="evenodd" clip-rule="evenodd" d="M928.254 268.5C928.254 259.541 929.478 251.39 931.663 244L949.754 250.5V268.5H928.254Z" fill="#FF0084"/>
<path fill-rule="evenodd" clip-rule="evenodd" d="M931.663 244C935.703 230.339 943.029 219.275 951.988 210.5L962.873 223.5C955.25 231.491 950.52 240.922 949.754 250.5L931.663 244Z" fill="#00FF44"/>
<path fill-rule="evenodd" clip-rule="evenodd" d="M951.988 210.5C961.129 201.548 971.969 194.977 982.754 190.459L988.031 207C977.982 210.918 969.375 216.685 962.873 223.5L951.988 210.5Z" fill="#D34EFF"/>
<path fill-rule="evenodd" clip-rule="evenodd" d="M982.754 190.459C995.894 184.955 1008.95 182.5 1018.75 182.5L1017.75 201.5C1007.02 201.5 996.956 203.521 988.031 207L982.754 190.459Z" fill="#FF9500"/>
<path fill-rule="evenodd" clip-rule="evenodd" d="M1044.75 186.5V179.5C1051.35 179.5 1061.38 181.075 1072.37 185L1064.75 207.642C1055.11 204.083 1046.04 202.5 1039.75 202.5L1044.75 186.5Z" fill="#00FF44"/>
<path fill-rule="evenodd" clip-rule="evenodd" d="M1036.75 210.5L1039.75 202.5C1046.04 202.5 1055.11 204.083 1064.75 207.642L1058.75 215.45C1051.23 212.345 1043.71 210.5 1036.75 210.5Z" fill="#FF0084"/>
<path fill-rule="evenodd" clip-rule="evenodd" d="M1058.75 215.45L1064.75 207.642C1072.42 210.473 1080.46 214.553 1087.75 220.08L1082.16 229C1074.81 223.52 1066.78 218.766 1058.75 215.45Z" fill="#0F95B3"/>
<path fill-rule="evenodd" clip-rule="evenodd" d="M1072.37 185C1080.32 187.839 1088.77 191.908 1096.77 197.5L1087.75 220.08C1080.46 214.553 1072.42 210.473 1064.75 207.642L1072.37 185Z" fill="#D34EFF"/>
<path fill-rule="evenodd" clip-rule="evenodd" d="M1096.77 197.5C1103.22 202.005 1109.38 207.497 1114.75 214.132L1103.11 236C1098.82 229.724 1093.52 224.45 1087.75 220.08L1096.77 197.5Z" fill="#FF9500"/>
<path fill-rule="evenodd" clip-rule="evenodd" d="M1082.16 229L1087.75 220.08C1093.52 224.45 1098.82 229.724 1103.11 236L1098.42 243.5C1093.71 238.44 1088.16 233.477 1082.16 229Z" fill="#00FF44"/>
<path fill-rule="evenodd" clip-rule="evenodd" d="M1114.75 214.132C1120.86 221.66 1125.96 230.659 1129.33 241.351L1111.6 254.5C1109.75 247.549 1106.81 241.403 1103.11 236L1114.75 214.132Z" fill="#FF0084"/>
<path fill-rule="evenodd" clip-rule="evenodd" d="M1098.42 243.5L1103.11 236C1106.81 241.403 1109.75 247.549 1111.6 254.5L1108.25 256.12C1105.7 251.995 1102.35 247.714 1098.42 243.5Z" fill="#0CDCE3"/>
<path fill-rule="evenodd" clip-rule="evenodd" d="M1129.33 241.351C1132.14 250.26 1133.75 260.344 1133.75 271.734L1113.75 271.543C1113.75 265.391 1112.99 259.719 1111.6 254.5L1129.33 241.351Z" fill="#0F95B3"/>
<path fill-rule="evenodd" clip-rule="evenodd" d="M1108.25 256.12L1111.6 254.5C1112.99 259.719 1113.75 265.391 1113.75 271.543C1113.75 267.07 1111.74 261.74 1108.25 256.12Z" fill="#FF3815"/>
<path fill-rule="evenodd" clip-rule="evenodd" d="M1191.75 272.289C1191.75 264.914 1192.34 257.791 1193.62 251L1212.25 253.5L1208.75 272.452L1191.75 272.289Z" fill="#00FF44"/>
<path fill-rule="evenodd" clip-rule="evenodd" d="M1193.62 251C1195.64 240.255 1199.39 230.342 1205.25 221.578L1222.2 233.5C1217.18 240.808 1213.93 248.014 1212.25 253.5L1193.62 251Z" fill="#D34EFF"/>
<path fill-rule="evenodd" clip-rule="evenodd" d="M1212.25 253.5C1213.93 248.014 1217.18 240.808 1222.2 233.5L1225.75 236.879C1220.35 242.041 1215.89 247.747 1212.25 253.5Z" fill="#0CDCE3"/>
<path fill-rule="evenodd" clip-rule="evenodd" d="M1225.75 236.879L1222.2 233.5C1226.53 227.184 1232.18 220.791 1239.25 215.366L1245.25 223.387C1237.69 226.978 1231.23 231.648 1225.75 236.879Z" fill="#FF0084"/>
<path fill-rule="evenodd" clip-rule="evenodd" d="M1205.25 221.578C1210.87 213.192 1218.42 205.859 1228.25 199.856L1239.25 215.366C1232.18 220.791 1226.53 227.184 1222.2 233.5L1205.25 221.578Z" fill="#00FF44"/>
<path fill-rule="evenodd" clip-rule="evenodd" d="M1245.25 223.387L1239.25 215.366C1245.46 210.602 1252.77 206.585 1261.25 204.02L1263.39 217.5C1256.74 218.771 1250.71 220.798 1245.25 223.387Z" fill="#FF9500"/>
<path fill-rule="evenodd" clip-rule="evenodd" d="M1228.25 199.856C1236.08 195.079 1245.36 191.144 1256.25 188.193L1261.25 204.02C1252.77 206.585 1245.46 210.602 1239.25 215.366L1228.25 199.856Z" fill="#0F95B3"/>
<path fill-rule="evenodd" clip-rule="evenodd" d="M1256.25 188.193C1263.85 186.135 1272.24 184.555 1281.47 183.5L1282.25 201C1274.58 201 1267.59 202.105 1261.25 204.02L1256.25 188.193Z" fill="#FF0084"/>
<path fill-rule="evenodd" clip-rule="evenodd" d="M1282.25 201L1279.75 216C1273.92 216 1268.47 216.529 1263.39 217.5L1261.25 204.02C1267.59 202.105 1274.58 201 1282.25 201Z" fill="#00FF44"/>
<path fill-rule="evenodd" clip-rule="evenodd" d="M1298.7 212.5L1303.99 203.5C1312.2 203.5 1319.82 205.058 1326.75 207.77L1318.25 216.321C1312.46 213.878 1306.4 212.5 1300.25 212.5H1298.7Z" fill="#D34EFF"/>
<path fill-rule="evenodd" clip-rule="evenodd" d="M1309.52 184.5C1318.8 185.384 1327.19 187.041 1334.75 189.339L1326.75 207.77C1319.82 205.058 1312.2 203.5 1303.99 203.5L1305.75 200.5L1309.52 184.5Z" fill="#00FF44"/>
<path fill-rule="evenodd" clip-rule="evenodd" d="M1334.75 189.339C1347.61 193.248 1358.07 199.014 1366.46 206L1351.37 224.5C1344.58 217.436 1336.31 211.507 1326.75 207.77L1334.75 189.339Z" fill="#0F95B3"/>
<path fill-rule="evenodd" clip-rule="evenodd" d="M1318.25 216.321L1326.75 207.77C1336.31 211.507 1344.58 217.436 1351.37 224.5L1340.25 231.624C1333.72 225.055 1326.23 219.681 1318.25 216.321Z" fill="#FF0084"/>
<path fill-rule="evenodd" clip-rule="evenodd" d="M1385.76 230C1390.1 238.324 1392.88 247.17 1394.38 256L1372.39 266.712C1371.61 260.31 1369.6 253.415 1366.46 246.615L1385.76 230Z" fill="#FF0084"/>
<path fill-rule="evenodd" clip-rule="evenodd" d="M1366.46 246.615C1369.6 253.415 1371.61 260.31 1372.39 266.712L1362.47 269C1360.76 262.873 1358.12 256.683 1354.75 250.76L1366.46 246.615Z" fill="#00FF44"/>
<path fill-rule="evenodd" clip-rule="evenodd" d="M1340.25 231.624L1351.37 224.5C1357.77 231.158 1362.85 238.825 1366.46 246.615L1354.75 250.76C1350.82 243.842 1345.89 237.289 1340.25 231.624Z" fill="#0CDCE3"/>
<path fill-rule="evenodd" clip-rule="evenodd" d="M1366.46 206C1374.85 212.99 1381.18 221.203 1385.76 230L1366.46 246.615C1362.85 238.825 1357.77 231.158 1351.37 224.5L1366.46 206Z" fill="#FF9500"/>
<path fill-rule="evenodd" clip-rule="evenodd" d="M1372.75 272.5L1364.75 284.5C1364.75 279.521 1363.95 274.284 1362.47 269L1372.39 266.712C1372.63 268.694 1372.75 270.63 1372.75 272.5Z" fill="#0F95B3"/>
<path fill-rule="evenodd" clip-rule="evenodd" d="M1394.38 256C1395.32 261.551 1395.75 267.096 1395.75 272.5H1372.75C1372.75 270.63 1372.63 268.694 1372.39 266.712L1394.38 256Z" fill="#D34EFF"/>
<path fill-rule="evenodd" clip-rule="evenodd" d="M1395.75 272.5H1488.5H1489.5H1496.5L1489.5 285.5V290.5L1395.75 291.345L1378.75 291.5L1377.33 287L1372.75 272.5H1395.75Z" fill="#FF3815"/>
<path d="M1492.5 163.5L1488.5 167.5V272.5M1492.5 163.5L1313.75 161.301M1492.5 163.5V143.5M1488.5 272.5H1395.75M1488.5 272.5H1489.5H1496.5L1489.5 285.5V290.5M1395.75 272.5C1395.75 267.096 1395.32 261.551 1394.38 256M1395.75 272.5H1372.75M1394.38 256C1392.88 247.17 1390.1 238.324 1385.76 230M1394.38 256L1372.39 266.712M1385.76 230C1381.18 221.203 1374.85 212.99 1366.46 206M1385.76 230L1366.46 246.615M1366.46 206C1358.07 199.014 1347.61 193.248 1334.75 189.339M1366.46 206L1351.37 224.5M1334.75 189.339C1327.19 187.041 1318.8 185.384 1309.52 184.5M1334.75 189.339L1326.75 207.77M1309.52 184.5L1313.75 166.5V161.301M1309.52 184.5L1305.75 200.5L1303.99 203.5M1313.75 161.301L1280.75 160.893M1481.75 247.5V266H1463.25M1481.75 247.5V169.5L1474.75 169.413M1481.75 247.5C1474.68 243.355 1460 230.506 1448.94 212.5M1474.75 169.413L1410.25 168.615M1474.75 169.413L1438.28 190M1410.25 168.615L1353.25 167.909M1410.25 168.615C1397.5 175.159 1388.96 183.536 1383.55 191M1353.25 167.909L1320.25 167.5L1317.25 180C1337.22 181.065 1359.45 189.782 1376.03 206M1353.25 167.909C1352.85 175.582 1373.29 186.5 1383.55 191M1376.03 206C1380.01 209.9 1383.67 214.234 1386.89 219M1376.03 206C1376.81 202.622 1379.13 197.118 1383.55 191M1386.89 219C1395.44 231.642 1400.91 247.322 1401.25 266H1419.25M1386.89 219L1426.25 196.786M1419.25 266H1463.25M1419.25 266C1421.47 258.127 1423.05 249.724 1424.15 241.5M1463.25 266C1453.76 264.849 1450.14 246.565 1449.13 230M1018.75 157.656L785.754 154.778M1018.75 157.656V182.5M1018.75 157.656L1045.75 157.99M785.754 154.778L782.754 175.5M785.754 154.778L753.754 154.383M782.754 175.5C792.119 175.5 803.879 177.392 815.754 181.986M782.754 175.5L780.254 196.5M815.754 181.986C827.756 186.63 839.875 194.035 849.754 205.039M815.754 181.986L804.754 202.669M849.754 205.039C857.218 213.352 863.403 223.718 867.294 236.5M849.754 205.039L834.754 221.968M867.294 236.5C869.898 245.05 871.474 254.681 871.72 265.5M867.294 236.5L849.535 243M871.72 265.5C871.743 266.49 871.754 267.49 871.754 268.5M871.72 265.5L850.754 261.5M871.754 268.5H928.254M871.754 268.5H848.254M928.254 268.5C928.254 259.541 929.478 251.39 931.663 244M928.254 268.5H949.754M931.663 244C935.703 230.339 943.029 219.275 951.988 210.5M931.663 244L949.754 250.5M951.988 210.5C961.129 201.548 971.969 194.977 982.754 190.459M951.988 210.5L962.873 223.5M982.754 190.459C995.894 184.955 1008.95 182.5 1018.75 182.5M982.754 190.459L988.031 207M1018.75 182.5L1017.75 201.5M875.045 237.5C876.62 242.727 876.99 249.456 877.35 256.026C877.471 258.223 877.591 260.401 877.754 262.5H922.254C922.892 254.751 924.393 242.794 928.754 233M875.045 237.5L875.009 237.38M875.045 237.5C875.033 237.46 875.021 237.42 875.009 237.38M875.045 237.5C875.032 237.465 875.02 237.425 875.009 237.38M875.009 237.38C868.692 216.514 857.41 200.696 843.754 190.5M875.009 237.38C873.96 233.305 876.584 187.22 906.254 162.068M843.754 190.5C825.634 176.972 803.958 171.081 790.254 170.5L791.254 160.5L855.254 161.378M843.754 190.5C845.219 182.365 845.94 178.367 847.427 174.676C848.864 171.108 851.018 167.829 855.254 161.378M855.254 161.378L906.254 162.068M906.254 162.068L947.754 162.628M906.254 162.068C922.654 185.614 927.972 218.833 928.754 233M947.754 162.628L1012.25 163.5V174.5C990.688 176.896 973.555 184.468 960.254 194.528M947.754 162.628C959.254 173.5 960.254 179.5 960.254 194.528M960.254 194.528C949.639 202.556 942.319 209 935.254 220.5C932.8 224.494 930.524 229.025 928.754 233M250.754 171V148.169M250.754 171C264.861 171 277.622 174.684 288.754 180.534M250.754 171L250.137 193.549M250.754 148.169L485.754 151.072M250.754 148.169L219.754 147.786M485.754 151.072L489.754 174.5M485.754 151.072L517.754 151.467M489.754 174.5C485.55 174.5 469.219 177.769 451.254 186.39M489.754 174.5L492.754 194.5M451.254 186.39C441.902 190.878 432.106 196.817 423.348 204.5M451.254 186.39L460.632 204.5M423.348 204.5C413.488 213.149 404.943 224.009 399.823 237.5M423.348 204.5L438.29 221M399.823 237.5C396.617 245.95 394.754 255.431 394.754 266.047M399.823 237.5L422.679 245M394.754 266.047L337.754 263.5M394.754 266.047L418.754 267.12M337.754 263.5V246.5C337.754 244.379 337.477 242.026 336.934 239.5M337.754 263.5H319.754V260M336.934 239.5C335.235 231.59 330.927 221.985 324.351 212.5M336.934 239.5L319.754 246.5M324.351 212.5C315.952 200.385 303.851 188.468 288.754 180.534M324.351 212.5L306.953 221M288.754 180.534L279.254 201.418M396.599 228C392.238 237.794 388.392 250.751 387.754 258.5L346.254 257C345.602 248.624 344.647 238.475 342.545 231.5M396.599 228C398.369 224.025 400.471 219.994 402.925 216C408.965 206.169 417.139 196.556 427.754 188.528M396.599 228C395.818 213.833 390.154 179.614 373.754 156.068M427.754 188.528C441.055 178.468 458.188 170.896 479.754 168.5L478.254 158L415.254 156.628M427.754 188.528C423.588 181.352 415.254 164.926 415.254 156.628M415.254 156.628L373.754 156.068M373.754 156.068L322.754 155.378M373.754 156.068C344.084 181.22 341.46 227.305 342.509 231.38M322.754 155.378L257.754 154.5V164.5C271.458 165.081 291.634 170.972 309.754 184.5M322.754 155.378C322.754 178.081 313.861 183.919 309.754 184.5M309.754 184.5C323.411 194.696 336.192 210.514 342.509 231.38M342.509 231.38L342.545 231.5M342.509 231.38C342.521 231.42 342.533 231.46 342.545 231.5M342.509 231.38C342.52 231.425 342.532 231.465 342.545 231.5M30.5 261.5L35.5 145.5M30.5 261.5H124.754M30.5 261.5H21.5V264.5L30.5 277V281.5M35.5 145.5L219.754 147.786M35.5 145.5L30.5 139.5V131.5M219.754 147.786V171M219.754 171C209.879 171 200.088 172.865 190.754 176.221M219.754 171L225.652 193.919M190.754 176.221C177.252 181.075 164.709 189.047 154.263 199M190.754 176.221L204.277 199M154.263 199C145.516 207.334 138.24 217.056 133.101 227.5M154.263 199L172.254 217.335M133.101 227.5C127.783 238.308 124.754 249.888 124.754 261.5M133.101 227.5L154.263 239.823M124.754 261.5H148.754M174.254 153.546L213.254 154V165C195.69 166.585 180.742 172.041 168.254 179.627M174.254 153.546L104.338 152.731M174.254 153.546C168.921 156.364 160.254 165.525 168.254 179.627M104.338 152.731L42.2539 152.008M104.338 152.731C102.143 157.987 99.8539 171.249 108.254 182.247M42.2539 152.008L41.1861 174M42.2539 152.008L77.9945 172.728M41.1861 174L37.9903 239.823M41.1861 174C47.8566 177.225 57.1386 183.86 65.3267 193.919M37.9903 239.823L37.2539 254.99H83.2539M37.9903 239.823C63.4012 241.165 75.2477 224.167 77.9945 215.5M83.2539 254.99H117.754C117.754 244.446 124.129 225.326 137.754 207.372M83.2539 254.99C84.7021 239.721 82.3575 226.56 77.9945 215.5M137.754 207.372C145.514 197.146 155.627 187.298 168.254 179.627M137.754 207.372C127.421 213.081 99.8158 220.3 72.0631 203.5M137.754 207.372L104.338 188M168.254 179.627C159.243 163.743 122.759 166.232 108.254 182.247M780.254 196.5L777.754 210.5M780.254 196.5C787.118 196.5 795.823 198.79 804.754 202.669M777.754 210.5L759.754 212.5L758.754 208.5M777.754 210.5C784.272 210.5 791.858 212.309 799.626 215.328M758.754 208.5L757.754 196.5M758.754 208.5C749.184 209.867 739.861 212.161 731.254 215.328M757.754 196.5L753.754 177.31M757.754 196.5C748.77 196.5 738.264 198.101 728.098 202M753.754 177.31V154.383M753.754 177.31C745.211 177.31 732.969 179.92 720.254 185.527M753.754 154.383L517.754 151.467M1045.75 157.99L1044.75 179.5M1045.75 157.99L1280.75 160.893M1044.75 179.5V186.5L1039.75 202.5M1044.75 179.5C1051.35 179.5 1061.38 181.075 1072.37 185M1039.75 202.5L1036.75 210.5M1039.75 202.5C1046.04 202.5 1055.11 204.083 1064.75 207.642M1036.75 210.5H1017.75V201.5M1036.75 210.5C1043.71 210.5 1051.23 212.345 1058.75 215.45M1017.75 201.5C1007.02 201.5 996.956 203.521 988.031 207M517.754 151.467V175.5M517.754 175.5L513.754 194.5M517.754 175.5C525.772 175.5 537.495 177.626 549.754 182.754M513.754 194.5L512.254 206.5M513.754 194.5C520.134 194.5 530.609 196.603 541.754 201.319M512.254 206.5L511.254 208.5L496.754 210.5L494.754 206.5M512.254 206.5C520.97 206.5 528.905 207.983 536.085 210.5M494.754 206.5L492.754 194.5M494.754 206.5C488.606 206.5 477.582 209.451 465.754 215.228M492.754 194.5C485.62 194.5 473.244 197.74 460.632 204.5M250.137 193.549L249.838 204.5M250.137 193.549C260.785 194.684 270.581 197.509 279.254 201.418M249.838 204.5L249.783 206.5L230.254 211.5L229.254 207.919M249.838 204.5C258.105 206.026 266.092 208.432 273.526 211.5M229.254 207.919L225.652 193.919M229.254 207.919C222.712 208.455 216.726 209.486 211.254 210.902M225.652 193.919C218.167 194.901 211.007 196.642 204.277 199M77.9945 215.5C76.2902 211.179 74.2778 207.18 72.0631 203.5M72.0631 203.5C69.9687 200.02 67.6934 196.826 65.3267 193.919M65.3267 193.919C62.4685 183.211 72.581 175.33 77.9945 172.728M77.9945 172.728L104.338 188M104.338 188C105.335 185.924 106.662 184.004 108.254 182.247M589.254 157.878L524.254 157V168.5C537.958 169.081 558.813 174.472 576.933 188M589.254 157.878C589.254 180.581 581.04 187.419 576.933 188M589.254 157.878L640.254 158.568M576.933 188C590.589 198.196 602.692 213.014 609.009 233.88M640.254 158.568C610.584 183.72 607.96 229.805 609.009 233.88M640.254 158.568C656.654 182.114 662.318 216.333 663.099 230.5M640.254 158.568L681.754 159.128M609.009 233.88L609.045 234M609.009 233.88C609.021 233.92 609.033 233.96 609.045 234M609.009 233.88C609.02 233.925 609.032 233.965 609.045 234M609.045 234C611.147 240.975 612.602 248.624 613.254 257L655.754 257.5C656.392 249.751 658.738 240.294 663.099 230.5M663.099 230.5C664.869 226.525 666.971 222.494 669.425 218.5C675.465 208.669 683.639 199.056 694.254 191.028M681.754 159.128C681.754 167.426 690.087 183.852 694.254 191.028M681.754 159.128L746.254 160V171C724.688 173.396 707.555 180.968 694.254 191.028M1281.47 183.5C1272.24 184.555 1263.85 186.135 1256.25 188.193M1281.47 183.5L1280.75 167.5V160.893M1281.47 183.5L1282.25 201M1256.25 188.193C1245.36 191.144 1236.08 195.079 1228.25 199.856M1256.25 188.193L1261.25 204.02M1228.25 199.856C1218.42 205.859 1210.87 213.192 1205.25 221.578M1228.25 199.856L1239.25 215.366M1205.25 221.578C1199.39 230.342 1195.64 240.255 1193.62 251M1205.25 221.578L1222.2 233.5M1193.62 251C1192.34 257.791 1191.75 264.914 1191.75 272.289M1193.62 251L1212.25 253.5M1191.75 272.289L1133.75 271.734M1191.75 272.289L1208.75 272.452M1133.75 271.734C1133.75 260.344 1132.14 250.26 1129.33 241.351M1133.75 271.734L1113.75 271.543M1129.33 241.351C1125.96 230.659 1120.86 221.66 1114.75 214.132M1129.33 241.351L1111.6 254.5M1114.75 214.132C1109.38 207.497 1103.22 202.005 1096.77 197.5M1114.75 214.132L1103.11 236M1096.77 197.5C1088.77 191.908 1080.32 187.839 1072.37 185M1096.77 197.5L1087.75 220.08M1072.37 185L1064.75 207.642M1140.25 265.5H1183.75C1183.86 264.18 1183.95 262.724 1184.05 261.168C1184.52 253.586 1185.14 243.626 1188.75 235.5M1140.25 265.5L1140.25 265.419C1139.6 257.061 1138.85 247.452 1136.75 240.5M1140.25 265.5C1140.25 265.474 1140.25 265.448 1140.25 265.423M1188.75 235.5C1195.66 220 1205.05 207 1220.25 195.5M1188.75 235.5C1187.97 221.333 1184.15 188.614 1167.75 165.068M1220.25 195.5C1233.55 185.44 1252.25 180.5 1273.75 177.5V166.5L1209.25 165.628M1220.25 195.5C1220.25 194.882 1220.25 194.282 1220.26 193.7C1220.27 180.134 1220.28 176.053 1209.25 165.628M1209.25 165.628L1167.75 165.068M1167.75 165.068L1116.75 164.378M1167.75 165.068C1138.08 190.22 1135.71 236.426 1136.75 240.5M1116.75 164.378L1052.25 163.5L1051.75 173.5C1065.46 174.081 1087.13 179.972 1105.25 193.5M1116.75 164.378C1112.52 170.829 1110.36 174.108 1108.93 177.676C1107.44 181.367 1106.72 185.365 1105.25 193.5M1105.25 193.5C1118.91 203.696 1130.44 219.634 1136.75 240.5M1438.28 190L1426.25 196.786M1438.28 190C1441.17 198.379 1444.88 205.888 1448.94 212.5M1426.25 196.786C1426.72 205.376 1426.63 222.983 1424.15 241.5M1424.15 241.5C1438.63 243.5 1446.25 235 1449.13 230M1448.94 212.5C1448.74 217.322 1448.73 223.53 1449.13 230M314.754 565.5H118.754L126.754 579.5L131.254 579.548M314.754 565.5L312.754 581.5M314.754 565.5L321.754 578.5L315.754 586.5L312.754 581.5M312.754 581.5L310.254 581.473M310.254 581.473L288.754 581.242M310.254 581.473L305.754 588.5L304.754 630.5H292.754V587.5L288.754 581.242M288.754 581.242L156.754 579.823M156.754 579.823L131.254 579.548M156.754 579.823L150.754 589.5V629.5H136.754V586.5L131.254 579.548M400.754 581.5L407.754 593.5V632.5H422.754V592.5L431.254 581.5M400.754 581.5H431.254M400.754 581.5H394.754V567.5H589.754M431.254 581.5H558.254M589.754 567.5L583.754 581.5M589.754 567.5L593.754 581.5H583.754M583.754 581.5H581.754M581.754 581.5H558.254M581.754 581.5L574.754 592.5V633.5H564.754V588.5L558.254 581.5M676.754 582.5L679.754 587.5V631.5H693.754L694.754 594.5L700.254 582.5M676.754 582.5H700.254M676.754 582.5H674.754L667.754 567.5L861.754 568.5V582.5H850.754M700.254 582.5H828.754M850.754 582.5H828.754M850.754 582.5L844.754 593.5V634.5H831.754V588.5L828.754 582.5M944.254 584.3L945.754 582.5M944.254 584.3L949.754 593.5V633.5H961.754V591.5L966.754 582.5M944.254 584.3L940.754 588.5L934.754 580.5L936.754 567.5M945.754 582.5H966.754M945.754 582.5L936.754 567.5M966.754 582.5H1096.75M936.754 567.5L1131.75 568.5L1122.75 582.5H1119.25M1119.25 582.5H1096.75M1119.25 582.5L1110.75 591.5L1109.75 637.5H1097.75L1099.75 591.5L1096.75 582.5M1213.75 585.5V633.5H1227.75V602.5L1235.75 585.5M1213.75 585.5H1235.75M1213.75 585.5H1212.75M1235.75 585.5H1359.75M1212.75 585.5L1206.75 570.5M1212.75 585.5L1207.75 590.5H1205.75L1197.75 581.5L1206.75 570.5M1206.75 570.5H1397.25L1389.75 585.5H1384.75M1384.75 585.5H1359.75M1384.75 585.5L1376.75 595.5V634.5H1364.75L1366.75 596.5L1359.75 585.5M1109.25 271.5C1112.09 277.333 1117.75 289.1 1117.75 289.5M1109.25 271.5L1103.75 284.5V286.5L1109.48 293.372L1113.75 289.5M1109.25 271.5L1113.75 271.543M1117.75 289.5H1113.75M1117.75 289.5H1129.75M1113.75 289.5V504.5H947.754V287.5H939.754M949.754 268.5H951.754V271.5L939.754 287.5M949.754 268.5V250.5M939.754 287.5H932.754V288.5M932.754 288.5L864.754 286.841M932.754 288.5L931.754 532.831M864.754 286.841L853.754 286.573M864.754 286.841L861.754 532.505M853.754 286.573L848.254 268.5M853.754 286.573L850.754 286.5L850.671 292.5M848.254 268.5H846.636M850.671 292.5L840.754 278.5L846.636 268.5M850.671 292.5L847.754 503.5L679.754 504.5L681.754 282.5M846.636 268.5L850.754 261.5M604.754 265.702L663.754 266.269M604.754 265.702L589.254 265.553M604.754 265.702C604.754 253.742 602.908 243.221 599.724 234M663.754 266.269L685.754 266.481M663.754 266.269C663.754 257.263 665.035 249.018 667.309 241.5M685.754 266.481L687.754 266.5L681.754 282.5M685.754 266.481C685.754 258.517 686.703 251.381 688.412 245M685.754 266.481C685.754 249.907 695.02 236.417 709.306 226.5M681.754 282.5L674.754 281.5H670.754M670.754 281.5H598.754M670.754 281.5L667.754 531.602M598.754 281.5H584.754M598.754 281.5L595.754 531.266M584.754 281.5L583.754 280.5V265.5L589.254 265.553M584.754 281.5L577.754 501.5H411.754L416.754 285.5M589.254 265.553C589.254 257.412 587.874 250.079 585.473 243.5M589.254 265.553C587.538 260.7 583.991 253.125 578.489 245M418.754 267.12L427.254 267.5L419.754 285.5H416.754M418.754 267.12C418.754 259.035 420.191 251.669 422.679 245M418.754 267.12C420.203 260.369 422.888 254.158 426.428 248.5M416.754 285.5H398.754M398.754 285.5L332.754 282.5M398.754 285.5L396.754 530.34M332.754 282.5H318.754M332.754 282.5L329.754 530.028M318.754 282.5V278.5L313.754 266.5L319.754 260M318.754 282.5L310.754 502.5L140.754 501.5L145.754 493.5L146.754 281.5M319.754 260V246.5M319.754 260C319.754 248.572 311.854 236.527 299.254 226.441M148.754 261.5H151.254M148.754 261.5C148.754 254.278 150.694 246.914 154.263 239.823M151.254 261.5L147.254 281.5M151.254 261.5L157.125 274.5M147.254 281.5H146.754M147.254 281.5L152.754 284.5L158.254 277L157.125 274.5M146.754 281.5H123.754M123.754 281.5H30.5M123.754 281.5L124.754 529.073M30.5 281.5L18.5 528.575M30.5 281.5H26.7542M157.125 274.5L158.254 261.5C158.254 258.563 159.927 252.279 164.13 245M1372.75 272.5L1377.33 287M1372.75 272.5L1364.75 284.5M1372.75 272.5C1372.75 270.63 1372.63 268.694 1372.39 266.712M1377.33 287L1365.75 295.5L1360.75 290.5L1364.75 284.5M1377.33 287L1378.75 291.5M1364.75 284.5C1364.75 279.521 1363.95 274.284 1362.47 269M1208.75 272.452L1213.75 272.5V274.5L1208.75 289.5M1208.75 272.452L1212.25 253.5M1208.75 289.5H1194.75M1208.75 289.5H1210.75V507.5L1374.75 509.5L1378.75 291.5M1194.75 289.5L1130.75 288.5L1129.75 289.5M1194.75 289.5L1196.75 534.066M1129.75 289.5L1126.75 533.74M1113.75 271.543C1113.75 265.391 1112.99 259.719 1111.6 254.5M1113.75 271.543C1113.75 267.07 1111.74 261.74 1108.25 256.12M1303.99 203.5L1298.7 212.5M1303.99 203.5C1312.2 203.5 1319.82 205.058 1326.75 207.77M1298.7 212.5L1295.75 217.5L1279.75 218V216M1298.7 212.5H1300.25C1306.4 212.5 1312.46 213.878 1318.25 216.321M1279.75 216L1282.25 201M1279.75 216C1273.92 216 1268.47 216.529 1263.39 217.5M1282.25 201C1274.58 201 1267.59 202.105 1261.25 204.02M36.5 111.5L35.7542 54.5M36.5 111.5V114.714M36.5 111.5L4.84091 12M35.7542 54.5L69.2539 55.0314M35.7542 54.5L30.7542 44.5L17.7542 27.5M69.2539 55.0314C97.3213 62.2063 106.949 98.3275 108.254 115.491M69.2539 55.0314L219.754 57.4186M108.254 115.491L97.7542 115.379M108.254 115.491L164.13 116.09M97.7542 115.379L36.5 114.714M97.7542 115.379C88.5542 121.076 93.2542 128.867 96.7542 132.05M36.5 114.714L16.5 114.5L30.5 131.5M219.754 57.4186L164.13 116.09M219.754 57.4186L282.754 58.4179M164.13 116.09L201.754 116.493M282.754 58.4179C284.754 70.7786 287.554 99.8723 282.754 117.361M282.754 58.4179L410.254 60.4403M282.754 117.361L275.254 117.281M282.754 117.361L367.754 118.272M275.254 117.281L256.254 117.077M275.254 117.281C282.921 120.687 295.154 128.715 282.754 133.577M256.254 117.077L201.754 116.493M256.254 117.077C268.088 120.052 287.754 127.497 271.754 133.486M201.754 116.493C190.754 117.329 169.454 121.734 172.254 132.67M410.254 60.4403C399.33 71.6881 396.599 103.888 396.599 118.581M410.254 60.4403L517.754 62.1455M396.599 118.581L367.754 118.272M396.599 118.581L474.254 119.414M367.754 118.272L386.254 134.426M517.754 62.1455C519.921 72.2637 521.854 97.9642 512.254 119.821M517.754 62.1455L584.754 63.2083M512.254 119.821L474.254 119.414M512.254 119.821L564.754 120.383M474.254 119.414L475.754 135.161M584.754 63.2083C591.421 63.314 602.554 74.9593 593.754 120.694M584.754 63.2083L677.754 64.6834M593.754 120.694L564.754 120.383M593.754 120.694L634.254 121.128M564.754 120.383C539.954 127.09 540.421 133.402 543.754 135.719M677.754 64.6834C669.972 79.2408 655.278 110.963 658.754 121.391M677.754 64.6834L701.754 65.0641M658.754 121.391L634.254 121.128M658.754 121.391L681.754 121.637M634.254 121.128C631.754 125.086 623.754 133.655 611.754 136.277M701.754 65.0641C692.754 80.3761 676.154 113.127 681.754 121.637M701.754 65.0641L772.754 66.1903M681.754 121.637L753.254 122.404M772.754 66.1903C755.554 75.9426 769.754 107.913 779.004 122.68M772.754 66.1903L794.254 66.5314M779.004 122.68L753.254 122.404M779.004 122.68L804.754 122.955M753.254 122.404C772.054 127.681 779.421 134.776 780.754 137.664M880.754 123.77L804.754 122.955M880.754 123.77L914.254 124.129M880.754 123.77C878.921 127.567 877.854 135.838 888.254 138.547M804.754 122.955C808.754 99.7911 799.421 75.6876 794.254 66.5314M794.254 66.5314L928.754 68.6648M928.754 68.6648L914.254 124.129M928.754 68.6648L949.754 68.9979M914.254 124.129L939.504 124.4L964.754 124.67M964.754 124.67L996.754 125.013L1077.25 125.876M964.754 124.67C965.69 116.87 962.466 110.092 958.77 102.321C954.567 93.4841 949.754 83.3636 949.754 68.9979M949.754 68.9979L1018.75 70.0924M1018.75 70.0924C1073.25 87 1077.49 114.087 1077.25 125.876M1018.75 70.0924L1130.75 71.869M1077.25 125.876L1093.75 126.053L1130.75 126.449M1130.75 71.869C1136.42 82.3787 1144.35 108.008 1130.75 126.449M1130.75 71.869L1252.25 73.7962M1130.75 126.449L1147.25 126.626M1252.25 73.7962L1234.25 127.558M1252.25 73.7962L1286.25 74.3355M1234.25 127.558L1147.25 126.626M1234.25 127.558L1252.25 127.751M1147.25 126.626C1147.59 129.751 1150.75 136.957 1160.75 140.783M1286.25 74.3355C1281.09 84.7237 1274.85 110.034 1291.25 128.169M1286.25 74.3355L1395.75 76.0724M1291.25 128.169L1252.25 127.751M1291.25 128.169L1319.75 128.475M1252.25 127.751C1254.12 136.958 1259.51 140.574 1264.37 141.634M1420.63 129.556L1395.75 76.0724M1420.63 129.556L1454.25 129.916M1420.63 129.556L1387 129.195M1395.75 76.0724L1485.75 77.5M1485.75 77.5L1487.03 105.5M1485.75 77.5L1509.75 48.5V46.5L17.7542 27.5M1487.03 105.5L1487.5 130.264M1487.03 105.5L1510.77 72.5L1534.5 39.5V19.5L1.5 1.5L4.84091 12M1487.5 130.264L1454.25 129.916M1487.5 130.264L1509.5 130.5V133.5L1492.5 143.5M1454.25 129.916C1456.92 132.793 1457.65 139.451 1439.25 143.069M1492.5 143.5L1439.25 143.069M1439.25 143.069L1406.75 142.802M1406.75 142.802L1387 129.195M1406.75 142.802L1334.25 142.207M1387 129.195L1319.75 128.475M1319.75 128.475C1331.75 134.895 1334.42 140.305 1334.25 142.207M1334.25 142.207L1270.75 141.686M1270.75 141.686L1264.37 141.634M1270.75 141.686C1269.09 142.054 1266.79 142.162 1264.37 141.634M1264.37 141.634L1160.75 140.783M1160.75 140.783L1063.25 139.983L983.754 139.33L888.254 138.547M888.254 138.547L780.754 137.664M780.754 137.664L611.754 136.277M611.754 136.277L577.754 135.998L543.754 135.719M543.754 135.719L475.754 135.161M475.754 135.161L386.254 134.426M30.5 131.5L96.7542 132.05M96.7542 132.05L172.254 132.67M172.254 132.67L271.754 133.486M271.754 133.486L282.754 133.577M282.754 133.577L386.254 134.426M4.84091 12L17.7542 27.5M154.263 239.823C158.313 231.777 164.46 224.08 172.254 217.335M154.263 239.823L164.13 245M172.254 217.335L184.754 222.822M172.254 217.335C181.049 209.724 191.94 203.323 204.277 199M164.13 245C168.273 237.825 174.874 229.682 184.754 222.822M184.754 222.822C191.814 217.921 200.547 213.674 211.254 210.902M204.277 199L211.254 210.902M279.254 201.418L273.526 211.5M279.254 201.418C290.617 206.54 300.054 213.522 306.953 221M273.526 211.5C283.247 215.511 292.024 220.654 299.254 226.441M306.953 221L299.254 226.441M306.953 221C314.823 229.53 319.392 238.705 319.754 246.5M422.679 245C426.168 235.649 431.725 227.669 438.29 221M422.679 245L426.428 248.5M438.29 221C445.054 214.13 452.887 208.651 460.632 204.5M438.29 221L443.754 229.236M460.632 204.5L465.754 215.228M443.754 229.236C437.093 234.704 431.036 241.134 426.428 248.5M443.754 229.236C450.747 223.496 458.406 218.816 465.754 215.228M541.754 201.319L536.085 210.5M541.754 201.319L549.754 182.754M541.754 201.319C552.606 205.912 564.094 212.982 573.053 223M536.085 210.5C547.523 214.509 557.044 221.141 564.754 228.576M549.754 182.754C561.927 187.846 574.628 195.898 584.754 207.768M573.053 223L564.754 228.576M573.053 223L584.754 207.768M573.053 223C578.249 228.811 582.595 235.614 585.473 243.5M564.754 228.576C570.236 233.862 574.801 239.555 578.489 245M584.754 207.768C590.942 215.021 596.167 223.7 599.724 234M585.473 243.5L578.489 245M585.473 243.5L599.724 234M667.309 241.5L688.412 245M667.309 241.5C671.403 227.966 678.716 216.789 687.573 207.768M688.412 245C691.158 234.747 695.866 226.446 701.754 219.804M687.573 207.768L701.754 219.804M687.573 207.768C697.339 197.821 708.982 190.497 720.254 185.527M701.754 219.804L709.306 226.5M701.754 219.804C709.183 211.424 718.488 205.686 728.098 202M709.306 226.5C715.734 222.038 723.179 218.299 731.254 215.328M720.254 185.527L728.098 202M728.098 202L731.254 215.328M804.754 202.669L799.626 215.328M804.754 202.669C815.331 207.263 826.224 214.085 834.754 221.968M799.626 215.328C809.252 219.069 819.158 224.669 827.657 230.989M834.754 221.968L827.657 230.989M834.754 221.968C841.793 228.474 847.222 235.703 849.535 243M827.657 230.989C834.055 235.747 839.656 240.912 843.74 246M827.657 230.989L827.254 231.5M849.535 243L843.74 246M849.535 243C850.327 245.501 850.754 248.01 850.754 250.5V261.5M843.74 246C848.12 251.457 850.754 256.824 850.754 261.5M949.754 250.5C950.52 240.922 955.25 231.491 962.873 223.5M962.873 223.5C969.375 216.685 977.982 210.918 988.031 207M1064.75 207.642L1058.75 215.45M1064.75 207.642C1072.42 210.473 1080.46 214.553 1087.75 220.08M1058.75 215.45C1066.78 218.766 1074.81 223.52 1082.16 229M1087.75 220.08L1082.16 229M1087.75 220.08C1093.52 224.45 1098.82 229.724 1103.11 236M1082.16 229C1088.16 233.477 1093.71 238.44 1098.42 243.5M1103.11 236L1098.42 243.5M1103.11 236C1106.81 241.403 1109.75 247.549 1111.6 254.5M1098.42 243.5C1102.35 247.714 1105.7 251.995 1108.25 256.12M1111.6 254.5L1108.25 256.12M1212.25 253.5C1213.93 248.014 1217.18 240.808 1222.2 233.5M1212.25 253.5C1215.89 247.747 1220.35 242.041 1225.75 236.879M1222.2 233.5L1225.75 236.879M1222.2 233.5C1226.53 227.184 1232.18 220.791 1239.25 215.366M1225.75 236.879C1231.23 231.648 1237.69 226.978 1245.25 223.387M1239.25 215.366L1245.25 223.387M1239.25 215.366C1245.46 210.602 1252.77 206.585 1261.25 204.02M1245.25 223.387C1250.71 220.798 1256.74 218.771 1263.39 217.5M1261.25 204.02L1263.39 217.5M1326.75 207.77L1318.25 216.321M1326.75 207.77C1336.31 211.507 1344.58 217.436 1351.37 224.5M1318.25 216.321C1326.23 219.681 1333.72 225.055 1340.25 231.624M1351.37 224.5L1340.25 231.624M1351.37 224.5C1357.77 231.158 1362.85 238.825 1366.46 246.615M1340.25 231.624C1345.89 237.289 1350.82 243.842 1354.75 250.76M1372.39 266.712C1371.61 260.31 1369.6 253.415 1366.46 246.615M1372.39 266.712L1362.47 269M1366.46 246.615L1354.75 250.76M1362.47 269C1360.76 262.873 1358.12 256.683 1354.75 250.76M1489.5 290.5L1395.75 291.345M1489.5 290.5L1491.5 535.435M1395.75 291.345L1378.75 291.5M1395.75 291.345L1388.75 534.96M1496.5 831.5L1512 816.5H1498.5M1496.5 831.5L1498.5 816.5M1496.5 831.5L1498 858.5H1408M1498.5 816.5L1495.5 560.5M1498.5 816.5H7M1495.5 560.5V555.5L1505.5 545.5V535.5L1491.5 535.435M1495.5 560.5L16.5 550.5M16.5 550.5L8.5 544V535L2.5 528.5L18.5 528.575M16.5 550.5L7 816.5M7 816.5H1.5L10 836.5L5 858.5H102.5M18.5 528.575L124.754 529.073M1491.5 535.435L1388.75 534.96M102.5 858.5L212.754 823.5L311 858.5M102.5 858.5H160.5M311 858.5H261M311 858.5H384.5M160.5 858.5L213.754 842L261 858.5M160.5 858.5H261M384.5 858.5L491.254 822L594 858.5M384.5 858.5H437M594 858.5H541.5M594 858.5H661M437 858.5L488.254 842L541.5 858.5M437 858.5H541.5M661 858.5L761.754 823L864.5 858.5M661 858.5H711.5M864.5 858.5H810.5M864.5 858.5H932.5M711.5 858.5L760.754 842L810.5 858.5M711.5 858.5H810.5M932.5 858.5L1035.25 823.5L1136.5 858.5M932.5 858.5H973M1136.5 858.5H1087M1136.5 858.5H1202M973 858.5L1030.75 840.5L1087 858.5M973 858.5H1087M1202 858.5L1306.75 824.5L1408 858.5M1202 858.5H1244M1408 858.5H1357.5M1244 858.5L1299.75 840.5L1357.5 858.5M1244 858.5H1357.5M124.754 529.073L329.754 530.028M329.754 530.028L396.754 530.34M396.754 530.34L595.754 531.266M595.754 531.266L667.754 531.602M667.754 531.602L861.754 532.505M1126.75 533.74L931.754 532.831M1126.75 533.74L1196.75 534.066M861.754 532.505L931.754 532.831M1196.75 534.066L1388.75 534.96M160.754 792.5H274.754L277.754 614.5H166.754L160.754 792.5ZM434.754 792.5H545.754L548.754 616.5H439.754L434.754 792.5ZM704.754 793.5H815.754V615.5H705.754L704.754 793.5ZM1238.75 792.5H1345.75V618.5H1238.75V792.5ZM972.754 792.5L1083.75 790.5L1081.75 616.5H972.754V792.5Z" stroke="black" stroke-width="3" stroke-linejoin="round" fill="none"/>
</svg>
