<svg width="4096" height="2308" viewBox="0 0 4096 2308" fill="none" xmlns="http://www.w3.org/2000/svg">
<path fill-rule="evenodd" clip-rule="evenodd" d="M4096 2307.62H0V0H4096V2307.62ZM14.6571 2302.3L27.9818 2243.67L5.32986 2190.38H19.987L45.3038 1481.57L23.9844 1464.25V1440.27L7.9948 1422.95L50.6337 1423.14L82.6129 764.767V752.776L58.6285 719.467V711.473H82.6129L95.9375 402.369L82.6129 386.38V365.063L45.3038 319.763L98.6025 320.334V311.769L5.32986 18.6528L4090.67 66.6173V119.911L3964.17 295.781L3965.42 361.77L4024.05 362.398V370.392L3978.74 397.039V450.333L3968.08 460.992V740.785H3989.4L3970.75 775.426V788.749L3976.08 1441.43L4013.39 1441.6V1468.25L3986.74 1494.89V1508.22L3994.73 2190.38H4030.71L3989.4 2230.35L3993.4 2302.3H14.6571Z" fill="#000000"/>
</svg>
