<svg width="4101" height="2313" viewBox="0 0 4101 2313" fill="none" xmlns="http://www.w3.org/2000/svg">
<path d="M17.1571 2304.8L14.7193 2304.24C14.5508 2304.98 14.7289 2305.76 15.2033 2306.35C15.6776 2306.95 16.3967 2307.3 17.1571 2307.3V2304.8ZM30.4818 2246.17L32.9196 2246.73C33.0361 2246.21 32.9881 2245.68 32.7826 2245.19L30.4818 2246.17ZM7.82986 2192.88V2190.38C6.99083 2190.38 6.20775 2190.8 5.74482 2191.5C5.28189 2192.2 5.20086 2193.08 5.52907 2193.86L7.82986 2192.88ZM4033.21 2192.88L4034.95 2194.67C4035.68 2193.97 4035.91 2192.88 4035.53 2191.94C4035.14 2191 4034.23 2190.38 4033.21 2190.38V2192.88ZM3991.9 2232.85H3989.4C3989.4 2232.89 3989.4 2232.94 3989.41 2232.99L3991.9 2232.85ZM3994.4 2219.52C3994.4 2218.14 3993.28 2217.02 3991.9 2217.02C3990.52 2217.02 3989.4 2218.14 3989.4 2219.52H3991.9H3994.4ZM3995.9 2304.8V2307.3C3996.59 2307.3 3997.24 2307.01 3997.72 2306.51C3998.19 2306.01 3998.43 2305.34 3998.4 2304.66L3995.9 2304.8ZM3989.24 1497.39L3987.47 1495.63C3987 1496.09 3986.74 1496.73 3986.74 1497.39H3989.24ZM4015.89 1470.75L4017.65 1472.51C4018.12 1472.05 4018.39 1471.41 4018.39 1470.75H4015.89ZM4015.89 1444.1H4018.39C4018.39 1442.72 4017.28 1441.61 4015.9 1441.6L4015.89 1444.1ZM10.4948 1425.45L10.5064 1422.95C9.51132 1422.94 8.60821 1423.53 8.207 1424.44C7.80578 1425.35 7.98286 1426.41 8.65787 1427.14L10.4948 1425.45ZM26.4844 1442.77H28.9844C28.9844 1442.14 28.7476 1441.53 28.3213 1441.07L26.4844 1442.77ZM26.4844 1466.75H23.9844C23.9844 1467.5 24.3237 1468.21 24.908 1468.69L26.4844 1466.75ZM85.1129 755.276H87.6129C87.6129 754.752 87.448 754.241 87.1417 753.815L85.1129 755.276ZM61.1285 721.967H58.6285C58.6285 722.492 58.7933 723.003 59.0997 723.428L61.1285 721.967ZM61.1285 713.973V711.473C59.7478 711.473 58.6285 712.592 58.6285 713.973H61.1285ZM408.902 713.973L411.18 712.944C410.776 712.049 409.885 711.473 408.902 711.473V713.973ZM427.557 755.276L429.573 756.754C430.106 756.027 430.206 755.069 429.835 754.247L427.557 755.276ZM412.9 775.261L411.702 777.456C412.802 778.055 414.175 777.749 414.915 776.74L412.9 775.261ZM3981.24 452.833L3983.01 454.601C3983.48 454.132 3983.74 453.496 3983.74 452.833H3981.24ZM85.1129 388.881H82.6129C82.6129 389.465 82.818 390.032 83.1924 390.481L85.1129 388.881ZM47.8038 322.263L47.8306 319.763C46.8584 319.753 45.9683 320.307 45.5487 321.184C45.129 322.061 45.256 323.102 45.8741 323.853L47.8038 322.263ZM4026.55 364.898H4029.05C4029.05 363.528 4027.94 362.413 4026.57 362.398L4026.55 364.898ZM4026.55 372.892L4027.81 375.047C4028.58 374.598 4029.05 373.778 4029.05 372.892H4026.55ZM3967.92 364.27L3967.89 366.77L3967.89 366.77L3967.92 364.27ZM3966.67 298.281L3964.17 298.328L3964.17 298.328L3966.67 298.281ZM4093.17 122.411L4095.2 123.871C4095.51 123.446 4095.67 122.935 4095.67 122.411H4093.17ZM4093.17 69.1173H4095.67C4095.67 67.7481 4094.57 66.6336 4093.2 66.6175L4093.17 69.1173ZM7.82986 21.1529L7.85921 18.653C7.05651 18.6436 6.29811 19.0202 5.82049 19.6654C5.34288 20.3106 5.20415 21.146 5.44757 21.9109L7.82986 21.1529ZM87.7778 135.735L90.0138 134.617C89.9433 134.475 89.8595 134.341 89.7636 134.216L87.7778 135.735ZM16.7332 49.1321L14.3509 49.8902L16.7332 49.1321ZM4029.21 141.064H4031.71C4031.71 139.696 4030.61 138.582 4029.24 138.564L4029.21 141.064ZM4029.21 146.393L4031.14 147.987C4031.51 147.539 4031.71 146.975 4031.71 146.393H4029.21ZM3970.58 463.492L3968.82 461.724C3968.35 462.193 3968.08 462.829 3968.08 463.492H3970.58ZM3991.9 743.285L3994.1 744.47C3994.52 743.695 3994.5 742.758 3994.05 742.003C3993.6 741.247 3992.78 740.785 3991.9 740.785V743.285ZM3978.58 1443.93L3978.57 1446.43L3978.57 1446.43L3978.58 1443.93ZM572.795 2211.53L573.64 2209.18C573.126 2208.99 572.565 2208.98 572.044 2209.15L572.795 2211.53ZM575.46 2260.83L576.296 2258.47C575.791 2258.29 575.242 2258.28 574.73 2258.44L575.46 2260.83ZM1314.98 2207.53L1315.82 2205.18C1315.29 2204.99 1314.71 2204.98 1314.18 2205.17L1314.98 2207.53ZM1306.98 2260.83L1307.73 2258.44C1307.24 2258.29 1306.72 2258.29 1306.23 2258.44L1306.98 2260.83ZM2035.84 2210.2L2036.66 2207.84C2036.13 2207.65 2035.55 2207.65 2035.02 2207.84L2035.84 2210.2ZM2033.18 2260.83L2033.98 2258.46C2033.46 2258.29 2032.91 2258.28 2032.39 2258.45L2033.18 2260.83ZM2764.7 2211.53L2765.52 2209.17C2765 2208.99 2764.43 2208.98 2763.9 2209.16L2764.7 2211.53ZM2752.71 2256.83L2753.48 2254.45C2752.99 2254.29 2752.47 2254.29 2751.97 2254.44L2752.71 2256.83ZM3488.23 2214.2L3489.03 2211.83C3488.52 2211.66 3487.97 2211.65 3487.46 2211.82L3488.23 2214.2ZM3469.58 2256.83L3470.33 2254.45C3469.84 2254.29 3469.31 2254.29 3468.82 2254.45L3469.58 2256.83ZM434.219 2128.93L431.72 2128.84C431.698 2129.52 431.951 2130.18 432.422 2130.66C432.893 2131.15 433.541 2131.43 434.219 2131.43V2128.93ZM738.021 2128.93V2131.43C739.385 2131.43 740.498 2130.33 740.521 2128.97L738.021 2128.93ZM746.016 1654.61L748.516 1654.65C748.527 1653.98 748.269 1653.34 747.799 1652.86C747.329 1652.38 746.686 1652.11 746.016 1652.11V1654.61ZM450.209 1654.61V1652.11C448.861 1652.11 447.755 1653.18 447.71 1654.53L450.209 1654.61ZM1164.41 2128.93L1161.91 2128.85C1161.89 2129.53 1162.15 2130.18 1162.62 2130.67C1163.09 2131.15 1163.73 2131.43 1164.41 2131.43V2128.93ZM1460.22 2128.93V2131.43C1461.58 2131.43 1462.69 2130.33 1462.72 2128.97L1460.22 2128.93ZM1468.21 1659.94L1470.71 1659.98C1470.72 1659.31 1470.47 1658.66 1470 1658.19C1469.53 1657.71 1468.88 1657.44 1468.21 1657.44V1659.94ZM1177.73 1659.94V1657.44C1176.38 1657.44 1175.27 1658.52 1175.24 1659.87L1177.73 1659.94ZM1883.94 2131.59L1881.44 2131.58C1881.44 2132.24 1881.7 2132.88 1882.17 2133.35C1882.64 2133.82 1883.28 2134.09 1883.94 2134.09V2131.59ZM2179.75 2131.59V2134.09C2181.13 2134.09 2182.25 2132.97 2182.25 2131.59H2179.75ZM2179.75 1657.27H2182.25C2182.25 1655.89 2181.13 1654.77 2179.75 1654.77V1657.27ZM1886.61 1657.27V1654.77C1885.23 1654.77 1884.11 1655.89 1884.11 1657.26L1886.61 1657.27ZM3307.02 2128.93H3304.52C3304.52 2130.31 3305.63 2131.43 3307.02 2131.43V2128.93ZM3592.16 2128.93V2131.43C3593.54 2131.43 3594.66 2130.31 3594.66 2128.93H3592.16ZM3592.16 1665.27H3594.66C3594.66 1663.89 3593.54 1662.77 3592.16 1662.77V1665.27ZM3307.02 1665.27V1662.77C3305.63 1662.77 3304.52 1663.89 3304.52 1665.27H3307.02ZM2598.14 2128.93H2595.64C2595.64 2129.6 2595.91 2130.24 2596.39 2130.71C2596.87 2131.18 2597.52 2131.44 2598.19 2131.42L2598.14 2128.93ZM2893.95 2123.6L2894 2126.1C2895.37 2126.07 2896.47 2124.94 2896.45 2123.57L2893.95 2123.6ZM2888.62 1659.94L2891.12 1659.91C2891.11 1658.54 2889.99 1657.44 2888.62 1657.44V1659.94ZM2598.14 1659.94V1657.44C2596.76 1657.44 2595.64 1658.56 2595.64 1659.94H2598.14ZM394.245 1332.18L396.365 1333.51C396.611 1333.11 396.743 1332.66 396.745 1332.19L394.245 1332.18ZM833.959 1356.16L833.944 1358.66C835.295 1358.67 836.408 1357.61 836.457 1356.26L833.959 1356.16ZM380.92 1353.5L378.8 1352.17C378.32 1352.94 378.293 1353.91 378.73 1354.7C379.167 1355.5 379.999 1355.99 380.906 1356L380.92 1353.5ZM855.278 759.273H857.778C857.778 758.943 857.713 758.616 857.586 758.311L855.278 759.273ZM841.953 727.297L840.117 725.601C839.454 726.319 839.27 727.356 839.646 728.258L841.953 727.297ZM857.943 719.302H855.443C855.443 720.683 856.562 721.802 857.943 721.802V719.302ZM857.943 674.003H860.443C860.443 673.964 860.442 673.925 860.44 673.887L857.943 674.003ZM427.557 713.973L430.047 714.189C430.053 714.118 430.057 714.045 430.057 713.973H427.557ZM591.45 415.527V413.027C590.069 413.027 588.95 414.147 588.95 415.527H591.45ZM674.063 415.527H676.563C676.563 414.147 675.444 413.027 674.063 413.027V415.527ZM671.475 567.415L672.095 569.837C673.177 569.56 673.944 568.599 673.974 567.483L671.475 567.415ZM619.432 580.738L617.024 581.411C617.39 582.72 618.735 583.498 620.052 583.16L619.432 580.738ZM671.621 562.086L669.122 562.017L669.122 562.017L671.621 562.086ZM607.166 533.891L609.587 533.268L609.587 533.268L607.166 533.891ZM338.281 1426.97L338.27 1429.47L338.27 1429.47L338.281 1426.97ZM884.592 1429.52L884.581 1432.02L884.581 1432.02L884.592 1429.52ZM892.587 769.932L892.701 767.434C892.663 767.433 892.625 767.432 892.587 767.432V769.932ZM1124.44 777.926V780.426C1125.45 780.426 1126.36 779.819 1126.74 778.887L1124.44 777.926ZM1144.42 729.961L1146.73 730.923C1147.04 730.17 1146.97 729.31 1146.53 728.621C1146.1 727.932 1145.35 727.5 1144.53 727.464L1144.42 729.961ZM1103.12 1353.5L1100.62 1353.44C1100.6 1354.11 1100.86 1354.77 1101.33 1355.25C1101.8 1355.73 1102.44 1356 1103.12 1356V1353.5ZM1545.5 1353.5V1356C1546.85 1356 1547.95 1354.93 1547.99 1353.58L1545.5 1353.5ZM1561.49 764.602H1558.99C1558.99 765.265 1559.25 765.901 1559.72 766.37L1561.49 764.602ZM1561.49 724.632L1561.51 722.132C1560.84 722.126 1560.2 722.386 1559.73 722.856C1559.25 723.325 1558.99 723.965 1558.99 724.632H1561.49ZM1838.64 727.297L1840.98 728.174C1841.27 727.411 1841.16 726.555 1840.7 725.882C1840.24 725.21 1839.48 724.805 1838.66 724.797L1838.64 727.297ZM1803.99 767.267L1804.35 764.792C1804.23 764.775 1804.11 764.767 1803.99 764.767V767.267ZM1593.46 1432.82L1593.45 1435.32L1593.45 1435.32L1593.46 1432.82ZM1817.32 1361.49L1814.82 1361.47C1814.81 1362.14 1815.08 1362.78 1815.55 1363.26C1816.02 1363.73 1816.66 1364 1817.33 1363.99L1817.32 1361.49ZM2265.03 1358.83L2265.04 1361.33C2266.4 1361.32 2267.51 1360.22 2267.53 1358.86L2265.03 1358.83ZM2491.55 785.92L2494.05 785.93V785.92H2491.55ZM2491.55 783.255V780.755C2490.17 780.755 2489.05 781.874 2489.05 783.255H2491.55ZM2531.52 783.255H2534.02C2534.02 781.874 2532.9 780.755 2531.52 780.755V783.255ZM2531.52 1361.49H2529.02C2529.02 1362.87 2530.14 1363.99 2531.52 1363.99V1361.49ZM2973.9 1361.49V1363.99C2975.28 1363.99 2976.4 1362.87 2976.4 1361.49H2973.9ZM3008.54 1439.41L3008.53 1441.91L3008.53 1441.91L3008.54 1439.41ZM2302.34 1436.12L2302.32 1438.62L2302.32 1438.62L2302.34 1436.12ZM2310.33 781.5L2310.39 779.001L2310.39 779.001L2310.33 781.5ZM3019.2 785.92L3019.24 783.42C3018.57 783.41 3017.91 783.674 3017.44 784.152L3019.2 785.92ZM3232.4 788.585H3234.9C3234.9 787.204 3233.78 786.085 3232.4 786.085V788.585ZM3232.4 1369.49H3229.9C3229.9 1370.86 3231 1371.97 3232.37 1371.99L3232.4 1369.49ZM3669.45 1374.82L3669.42 1377.32C3670.79 1377.33 3671.92 1376.24 3671.95 1374.86L3669.45 1374.82ZM3706.76 1442.66L3706.74 1445.16L3706.76 1442.66ZM2273.02 780.59L2273.08 778.091C2272.42 778.075 2271.77 778.326 2271.29 778.789C2270.81 779.252 2270.53 779.888 2270.52 780.556L2273.02 780.59ZM2246.37 759.273L2244.22 758.005C2243.72 758.853 2243.76 759.915 2244.33 760.718L2246.37 759.273ZM2273.02 713.973L2275.18 715.241C2275.4 714.857 2275.52 714.419 2275.52 713.973H2273.02ZM2262.05 732.626L2259.89 731.358L2259.89 731.358L2262.05 732.626ZM2281.02 780.785L2280.96 783.285L2280.96 783.285L2281.02 780.785ZM2542.18 732.626H2544.68C2544.68 731.245 2543.56 730.126 2542.18 730.126V732.626ZM2542.18 740.62L2544.18 742.12C2544.5 741.687 2544.68 741.161 2544.68 740.62H2542.18ZM2536.85 684.661L2534.36 684.462C2534.35 684.528 2534.35 684.595 2534.35 684.661H2536.85ZM3240.39 743.285H3242.89C3242.89 741.913 3241.79 740.798 3240.42 740.785L3240.39 743.285ZM3240.39 748.614L3242.76 749.405C3242.85 749.15 3242.89 748.883 3242.89 748.614H3240.39ZM2973.9 788.585V786.085C2973.28 786.085 2972.68 786.315 2972.22 786.732L2973.9 788.585ZM2961.91 740.62L2961.93 738.12C2960.92 738.11 2960 738.713 2959.6 739.646L2961.91 740.62ZM2947.25 775.261L2944.95 774.287C2944.82 774.595 2944.75 774.926 2944.75 775.261H2947.25ZM2947.25 780.59H2944.75C2944.75 781.175 2944.95 781.742 2945.33 782.191L2947.25 780.59ZM2962.51 798.903L2960.59 800.504C2961.03 801.027 2961.66 801.349 2962.34 801.397C2963.02 801.444 2963.69 801.213 2964.19 800.756L2962.51 798.903ZM3632.14 791.249L3630.06 789.862C3629.4 790.854 3629.53 792.174 3630.37 793.017L3632.14 791.249ZM3645.46 804.573L3643.69 806.341C3644.57 807.213 3645.95 807.318 3646.94 806.588L3645.46 804.573ZM3642.8 775.261L3644.88 776.648L3644.88 776.648L3642.8 775.261ZM3236.39 692.656L3234 691.927C3233.98 692.017 3233.95 692.109 3233.94 692.202L3236.39 692.656ZM3422.94 552.759L3425.41 553.17C3425.43 552.997 3425.45 552.822 3425.44 552.647L3422.94 552.759ZM3181.76 742.724L3181.74 745.224L3181.74 745.224L3181.76 742.724ZM3420.85 506.127L3423.35 506.015L3423.35 506.015L3420.85 506.127ZM3495.6 508.792L3493.16 508.219L3493.16 508.219L3495.6 508.792ZM3485.57 551.427L3487.72 552.694C3487.85 552.478 3487.94 552.244 3488 551.999L3485.57 551.427ZM3506.89 460.827L3509.32 461.4C3509.5 460.644 3509.31 459.847 3508.82 459.246C3508.33 458.644 3507.59 458.305 3506.81 458.328L3506.89 460.827ZM3418.94 463.492L3418.87 460.993C3418.2 461.013 3417.56 461.301 3417.11 461.792C3416.65 462.282 3416.42 462.935 3416.45 463.604L3418.94 463.492ZM3458.92 596.727L3458.99 599.225C3459.85 599.199 3460.64 598.734 3461.07 597.994L3458.92 596.727ZM3416.28 598.059H3413.78C3413.78 598.736 3414.05 599.383 3414.54 599.854C3415.02 600.325 3415.68 600.579 3416.36 600.558L3416.28 598.059ZM3466.75 583.403L3464.6 582.135L3464.6 582.136L3466.75 583.403ZM343.611 1561.35L341.441 1562.59C341.881 1563.36 342.697 1563.84 343.584 1563.85L343.611 1561.35ZM322.292 1524.04V1521.54C321.401 1521.54 320.577 1522.01 320.13 1522.79C319.682 1523.56 319.679 1524.51 320.121 1525.28L322.292 1524.04ZM844.618 1524.04L846.82 1522.85C846.384 1522.04 845.538 1521.54 844.618 1521.54V1524.04ZM863.273 1558.68L865.273 1560.18C865.858 1559.4 865.936 1558.35 865.474 1557.5L863.273 1558.68ZM847.283 1580L845.14 1581.28C845.568 1582 846.323 1582.45 847.155 1582.5C847.986 1582.54 848.784 1582.16 849.283 1581.5L847.283 1580ZM370.261 1580H372.761C372.761 1579.44 372.57 1578.89 372.221 1578.45L370.261 1580ZM370.261 1694.58H367.761C367.761 1695.96 368.88 1697.08 370.261 1697.08V1694.58ZM407.57 1694.58V1697.08C408.95 1697.08 410.07 1695.96 410.07 1694.58H407.57ZM407.57 1587.99L405.445 1586.68C405.2 1587.07 405.07 1587.53 405.07 1587.99H407.57ZM423.559 1562.21L423.586 1559.71L423.586 1559.71L423.559 1562.21ZM775.33 1565.99L775.357 1563.49L775.357 1563.49L775.33 1565.99ZM785.99 1582.66H788.49C788.49 1582.19 788.353 1581.72 788.096 1581.32L785.99 1582.66ZM785.99 1697.24H783.49C783.49 1698.63 784.609 1699.74 785.99 1699.74V1697.24ZM817.969 1697.24V1699.74C819.327 1699.74 820.436 1698.66 820.468 1697.3L817.969 1697.24ZM820.634 1585.33L818.529 1583.98C818.282 1584.36 818.146 1584.81 818.135 1585.27L820.634 1585.33ZM832.626 1566.6L832.653 1564.1L832.653 1564.1L832.626 1566.6ZM1092.46 1702.57H1089.96C1089.96 1703.96 1091.08 1705.07 1092.46 1705.07V1702.57ZM1132.43 1702.57V1705.07C1133.81 1705.07 1134.93 1703.96 1134.93 1702.57H1132.43ZM1132.43 1595.99L1130.45 1594.46C1130.11 1594.9 1129.93 1595.43 1129.93 1595.99H1132.43ZM1092.46 1598.65H1094.96C1094.96 1598.21 1094.84 1597.77 1094.62 1597.39L1092.46 1598.65ZM1057.81 1566.68H1055.31C1055.31 1568.06 1056.43 1569.18 1057.81 1569.18V1566.68ZM1057.81 1529.37V1526.87C1056.43 1526.87 1055.31 1527.99 1055.31 1529.37H1057.81ZM1577.47 1529.37L1579.88 1528.68C1579.57 1527.61 1578.59 1526.87 1577.47 1526.87V1529.37ZM1588.13 1566.68V1569.18C1588.92 1569.18 1589.66 1568.81 1590.13 1568.18C1590.6 1567.55 1590.75 1566.74 1590.54 1565.99L1588.13 1566.68ZM1537.5 1595.99L1535.39 1594.64C1535.14 1595.05 1535 1595.51 1535 1595.99H1537.5ZM1537.5 1705.24V1707.74C1538.88 1707.74 1540 1706.62 1540 1705.24H1537.5ZM1510.85 1705.24H1508.35C1508.35 1706.62 1509.47 1707.74 1510.85 1707.74V1705.24ZM1510.85 1585.33H1513.35C1513.35 1584.7 1513.11 1584.09 1512.68 1583.63L1510.85 1585.33ZM1785.34 1529.37L1785.35 1526.87C1784.5 1526.86 1783.7 1527.3 1783.23 1528.02C1782.77 1528.74 1782.71 1529.65 1783.07 1530.43L1785.34 1529.37ZM1803.99 1569.34L1801.73 1570.4C1802.14 1571.28 1803.02 1571.84 1803.99 1571.84V1569.34ZM2302.34 1569.34V1571.84C2303.72 1571.84 2304.84 1570.72 2304.84 1569.34H2302.34ZM2302.34 1532.03H2304.84C2304.84 1530.66 2303.72 1529.54 2302.35 1529.53L2302.34 1532.03ZM1817.32 1582.66H1819.82C1819.82 1582.21 1819.7 1581.77 1819.46 1581.38L1817.32 1582.66ZM1817.32 1699.91H1814.82C1814.82 1701.29 1815.94 1702.41 1817.32 1702.41V1699.91ZM1854.63 1699.91V1702.41C1855.98 1702.41 1857.09 1701.33 1857.13 1699.98L1854.63 1699.91ZM1857.29 1601.32L1855.02 1600.27C1854.88 1600.58 1854.8 1600.91 1854.79 1601.25L1857.29 1601.32ZM2222.39 1585.33H2224.89C2224.89 1584.94 2224.8 1584.56 2224.62 1584.21L2222.39 1585.33ZM2222.39 1707.9H2219.89C2219.89 1709.28 2221.01 1710.4 2222.39 1710.4V1707.9ZM2257.03 1707.9V1710.4C2258.41 1710.4 2259.53 1709.28 2259.53 1707.9H2257.03ZM2257.03 1598.65L2254.84 1597.45C2254.64 1597.82 2254.53 1598.23 2254.53 1598.65H2257.03ZM2502.21 1529.37L2502.22 1526.87C2500.98 1526.86 2499.92 1527.76 2499.74 1528.99L2502.21 1529.37ZM2997.88 1569.34V1571.84C2998.73 1571.84 2999.53 1571.41 2999.99 1570.69L2997.88 1569.34ZM3021.87 1532.03L3023.97 1533.39C3024.46 1532.62 3024.5 1531.64 3024.07 1530.84C3023.63 1530.04 3022.79 1529.54 3021.88 1529.53L3021.87 1532.03ZM2496.88 1564.01L2494.41 1563.63C2494.3 1564.29 2494.47 1564.97 2494.88 1565.51L2496.88 1564.01ZM2512.87 1585.33L2510.87 1586.83C2511.32 1587.44 2512.04 1587.81 2512.8 1587.83C2513.57 1587.85 2514.3 1587.52 2514.79 1586.93L2512.87 1585.33ZM2522.19 1574.14L2520.27 1572.54L2520.27 1572.54L2522.19 1574.14ZM2536.85 1598.65H2539.35C2539.35 1598.2 2539.23 1597.76 2539 1597.37L2536.85 1598.65ZM2536.85 1705.24H2534.35C2534.35 1706.62 2535.47 1707.74 2536.85 1707.74V1705.24ZM2568.83 1705.24V1707.74C2570.21 1707.74 2571.33 1706.62 2571.33 1705.24H2568.83ZM2568.83 1593.32L2566.64 1592.11C2566.44 1592.48 2566.33 1592.9 2566.33 1593.32H2568.83ZM2936.59 1593.32L2939.09 1593.43C2939.1 1593.13 2939.06 1592.82 2938.96 1592.53L2936.59 1593.32ZM2931.26 1715.9L2928.76 1715.79C2928.73 1716.47 2928.98 1717.13 2929.45 1717.63C2929.93 1718.12 2930.58 1718.4 2931.26 1718.4V1715.9ZM2963.24 1715.9V1718.4C2964.6 1718.4 2965.71 1717.31 2965.74 1715.95L2963.24 1715.9ZM2965.9 1593.32L2964.09 1591.61C2963.66 1592.06 2963.42 1592.65 2963.4 1593.27L2965.9 1593.32ZM3221.74 1537.36V1534.86C3220.99 1534.86 3220.28 1535.2 3219.8 1535.78L3221.74 1537.36ZM3709.42 1577.33V1579.83C3710.37 1579.83 3711.23 1579.3 3711.66 1578.45L3709.42 1577.33ZM3729.41 1537.36L3731.64 1538.48C3732.03 1537.71 3731.99 1536.79 3731.53 1536.05C3731.08 1535.31 3730.27 1534.86 3729.41 1534.86V1537.36ZM3197.75 1566.68L3195.82 1565.09C3195.04 1566.04 3195.07 1567.42 3195.88 1568.34L3197.75 1566.68ZM3219.07 1590.66L3217.2 1592.32C3217.68 1592.85 3218.36 1593.16 3219.07 1593.16V1590.66ZM3224.4 1590.66V1593.16C3225.07 1593.16 3225.7 1592.89 3226.17 1592.43L3224.4 1590.66ZM3240.39 1705.24H3237.89C3237.89 1706.62 3239.01 1707.74 3240.39 1707.74V1705.24ZM3277.7 1705.24V1707.74C3279.08 1707.74 3280.2 1706.62 3280.2 1705.24H3277.7ZM3277.7 1622.63L3275.44 1621.57C3275.28 1621.9 3275.2 1622.27 3275.2 1622.63H3277.7ZM3648.13 1606.65L3650.62 1606.78C3650.65 1606.26 3650.52 1605.74 3650.24 1605.3L3648.13 1606.65ZM3642.8 1707.9L3640.3 1707.77C3640.26 1708.46 3640.51 1709.13 3640.98 1709.62C3641.46 1710.12 3642.11 1710.4 3642.8 1710.4V1707.9ZM3674.78 1707.9V1710.4C3676.16 1710.4 3677.28 1709.28 3677.28 1707.9H3674.78ZM3674.78 1603.98L3672.82 1602.42C3672.47 1602.86 3672.28 1603.41 3672.28 1603.98H3674.78ZM2720.73 503.462L2723.23 503.594C2723.23 503.55 2723.23 503.506 2723.23 503.462H2720.73ZM2790.02 495.468L2787.52 495.343C2787.52 495.385 2787.52 495.427 2787.52 495.468H2790.02ZM2973.9 740.735L2973.88 743.235L2973.88 743.235L2973.9 740.735ZM2718.07 578.074H2715.57C2715.57 579.455 2716.68 580.574 2718.07 580.574V578.074ZM2720.73 442.174V439.674C2719.35 439.674 2718.23 440.794 2718.23 442.174H2720.73ZM2792.68 442.174L2795.18 442.299C2795.21 441.615 2794.97 440.947 2794.49 440.451C2794.02 439.955 2793.37 439.674 2792.68 439.674V442.174ZM2790.02 514.121L2792.4 514.867C2792.48 514.625 2792.52 514.374 2792.52 514.121H2790.02ZM2091.81 484.81L2089.33 484.439C2089.33 484.464 2089.33 484.489 2089.32 484.514L2091.81 484.81ZM1833.31 727.245L1833.28 729.745L1833.28 729.745L1833.31 727.245ZM2025.18 540.768L2027.67 540.56C2027.67 540.459 2027.65 540.358 2027.63 540.258L2025.18 540.768ZM2030.51 583.403L2028.09 584.01C2028.39 585.223 2029.55 586.026 2030.79 585.888L2030.51 583.403ZM2099.8 431.516L2102.27 431.887C2102.38 431.18 2102.18 430.462 2101.72 429.914C2101.26 429.366 2100.59 429.039 2099.88 429.017L2099.8 431.516ZM2014.52 428.851L2014.6 426.352C2013.93 426.331 2013.27 426.585 2012.78 427.056C2012.3 427.527 2012.02 428.174 2012.02 428.851H2014.52ZM2014.52 489.631H2012.02C2012.02 489.803 2012.04 489.974 2012.08 490.142L2014.52 489.631ZM1576.14 724.773L1576.12 727.273L1576.12 727.273L1576.14 724.773ZM1374.94 535.439L1372.49 534.924C1372.48 534.991 1372.47 535.06 1372.46 535.129L1374.94 535.439ZM1617.45 725.17L1617.42 727.67L1617.42 727.67L1617.45 725.17ZM1121.77 728.949L1121.66 731.447L1121.66 731.447L1121.77 728.949ZM1310.98 482.145L1313.45 481.774C1313.45 481.742 1313.44 481.709 1313.44 481.677L1310.98 482.145ZM1300.32 426.186V423.686C1299.58 423.686 1298.87 424.018 1298.4 424.592C1297.92 425.166 1297.73 425.922 1297.87 426.654L1300.32 426.186ZM1385.6 426.186H1388.1C1388.1 424.806 1386.98 423.686 1385.6 423.686V426.186ZM1368.28 572.744L1368.62 575.221C1369.44 575.108 1370.14 574.6 1370.51 573.862L1368.28 572.744ZM1329.64 578.074L1327.4 579.192C1327.88 580.15 1328.92 580.697 1329.98 580.55L1329.64 578.074ZM2.5 2.5V0C1.11929 0 0 1.11929 0 2.5L2.5 2.5ZM4098.5 2310.12V2312.62C4099.88 2312.62 4101 2311.51 4101 2310.12H4098.5ZM17.1571 2304.8L19.5949 2305.35L32.9196 2246.73L30.4818 2246.17L28.044 2245.62L14.7193 2304.24L17.1571 2304.8ZM30.4818 2246.17L32.7826 2245.19L10.1307 2191.9L7.82986 2192.88L5.52907 2193.86L28.181 2247.15L30.4818 2246.17ZM4033.21 2192.88L4031.47 2191.08L3990.16 2231.05L3991.9 2232.85L3993.64 2234.64L4034.95 2194.67L4033.21 2192.88ZM3991.9 2232.85H3994.4V2219.52H3991.9H3989.4V2232.85H3991.9ZM3991.9 2232.85L3989.41 2232.99L3993.4 2304.93L3995.9 2304.8L3998.4 2304.66L3994.4 2232.71L3991.9 2232.85ZM3997.23 2192.88V2195.38H4033.21V2192.88V2190.38H3997.23V2192.88ZM3997.23 2192.88L3999.73 2192.85L3991.74 1510.69L3989.24 1510.72L3986.74 1510.75L3994.73 2192.91L3997.23 2192.88ZM3989.24 1510.72H3991.74V1497.39H3989.24H3986.74V1510.72H3989.24ZM3989.24 1497.39L3991.01 1499.16L4017.65 1472.51L4015.89 1470.75L4014.12 1468.98L3987.47 1495.63L3989.24 1497.39ZM4015.89 1470.75H4018.39V1444.1H4015.89H4013.39V1470.75H4015.89ZM10.4948 1425.45L8.65787 1427.14L24.6475 1444.46L26.4844 1442.77L28.3213 1441.07L12.3317 1423.75L10.4948 1425.45ZM26.4844 1442.77H23.9844V1466.75H26.4844H28.9844V1442.77H26.4844ZM26.4844 1466.75L24.908 1468.69L46.2274 1486.01L47.8038 1484.07L49.3802 1482.13L28.0608 1464.81L26.4844 1466.75ZM47.8038 1484.07L47.7869 1486.57L3989.22 1513.22L3989.24 1510.72L3989.25 1508.22L47.8207 1481.57L47.8038 1484.07ZM7.82986 2192.88V2195.38H22.487V2192.88V2190.38H7.82986V2192.88ZM22.487 2192.88V2195.38H3997.23V2192.88V2190.38H22.487V2192.88ZM47.8038 1484.07L45.3054 1483.98L19.9886 2192.79L22.487 2192.88L24.9854 2192.97L50.3022 1484.16L47.8038 1484.07ZM53.1337 1425.64L53.1453 1423.14L10.5064 1422.95L10.4948 1425.45L10.4832 1427.95L53.1221 1428.14L53.1337 1425.64ZM53.1337 1425.64L55.6308 1425.77L87.6099 767.388L85.1129 767.267L82.6158 767.146L50.6366 1425.52L53.1337 1425.64ZM85.1129 767.267V764.767H77.1181V767.267V769.767H85.1129V767.267ZM85.1129 767.267H87.6129V755.276H85.1129H82.6129V767.267H85.1129ZM85.1129 755.276L87.1417 753.815L63.1573 720.506L61.1285 721.967L59.0997 723.428L83.0841 756.737L85.1129 755.276ZM61.1285 721.967H63.6285V713.973H61.1285H58.6285V721.967H61.1285ZM408.902 713.973L406.451 713.483L395.791 766.777L398.242 767.267L400.694 767.757L411.354 714.463L408.902 713.973ZM427.557 755.276L425.541 753.797L410.884 773.783L412.9 775.261L414.915 776.74L429.573 756.754L427.557 755.276ZM412.9 775.261L414.097 773.066L399.439 765.072L398.242 767.267L397.045 769.462L411.702 777.456L412.9 775.261ZM61.1285 713.973V716.473H85.1129V713.973V711.473H61.1285V713.973ZM85.1129 713.973L87.6106 714.081L100.935 404.976L98.4375 404.869L95.9399 404.761L82.6152 713.865L85.1129 713.973ZM98.4375 404.869L98.4067 407.368L3981.21 455.333L3981.24 452.833L3981.27 450.333L98.4684 402.369L98.4375 404.869ZM3981.24 452.833H3983.74V399.539H3981.24H3978.74V452.833H3981.24ZM3981.24 399.539L3981.26 397.039L85.1334 365.063L85.1129 367.563L85.0924 370.063L3981.22 402.039L3981.24 399.539ZM85.1129 367.563H82.6129V388.881H85.1129H87.6129V367.563H85.1129ZM85.1129 388.881L83.1924 390.481L96.5171 406.469L98.4375 404.869L100.358 403.268L87.0334 387.28L85.1129 388.881ZM85.1129 367.563L87.0426 365.974L49.7336 320.674L47.8038 322.263L45.8741 323.853L83.1831 369.152L85.1129 367.563ZM4026.55 364.898H4024.05V372.892H4026.55H4029.05V364.898H4026.55ZM4026.55 372.892L4025.28 370.737L3979.98 397.384L3981.24 399.539L3982.51 401.694L4027.81 375.047L4026.55 372.892ZM3967.92 364.27L3967.89 366.77L4026.52 367.398L4026.55 364.898L4026.57 362.398L3967.95 361.77L3967.92 364.27ZM3965.25 223.67L3965.29 221.17L101.142 159.882L101.102 162.382L101.063 164.881L3965.21 226.169L3965.25 223.67ZM47.8038 322.263L47.7771 324.763L101.076 325.334L101.102 322.834L101.129 320.334L47.8306 319.763L47.8038 322.263ZM101.102 322.834L101.076 325.334L3967.89 366.77L3967.92 364.27L3967.95 361.77L101.129 320.334L101.102 322.834ZM3967.92 364.27L3970.42 364.223L3969.17 298.234L3966.67 298.281L3964.17 298.328L3965.42 364.317L3967.92 364.27ZM3966.67 298.281L3969.17 298.234L3967.75 223.622L3965.25 223.67L3962.75 223.717L3964.17 298.328L3966.67 298.281ZM3966.67 298.281L3968.7 299.741L4095.2 123.871L4093.17 122.411L4091.14 120.951L3964.64 296.821L3966.67 298.281ZM4093.17 122.411H4095.67V69.1173H4093.17H4090.67V122.411H4093.17ZM4093.17 69.1173L4093.2 66.6175L7.85921 18.653L7.82986 21.1529L7.80051 23.6527L4093.14 71.6172L4093.17 69.1173ZM101.102 162.382H98.6025V314.269H101.102H103.602V162.382H101.102ZM101.102 314.269H98.6025V322.834H101.102H103.602V314.269H101.102ZM101.102 162.382L103.339 161.263L90.0138 134.617L87.7778 135.735L85.5418 136.853L98.8665 163.5L101.102 162.382ZM87.7778 135.735L89.7636 134.216L55.1195 88.9162L53.1337 90.4349L51.1479 91.9536L85.792 137.253L87.7778 135.735ZM7.82986 21.1529L5.44757 21.9109L14.3509 49.8902L16.7332 49.1321L19.1155 48.3741L10.2122 20.3948L7.82986 21.1529ZM16.7332 49.1321L14.3509 49.8902L98.7202 315.027L101.102 314.269L103.485 313.511L19.1155 48.3741L16.7332 49.1321ZM53.1337 90.4349L55.0093 88.7819L18.6087 47.4792L16.7332 49.1321L14.8576 50.7851L51.2581 92.0878L53.1337 90.4349ZM53.1337 90.4349L53.1019 92.9347L4029.18 143.564L4029.21 141.064L4029.24 138.564L53.1655 87.9351L53.1337 90.4349ZM4029.21 141.064H4026.71V146.393H4029.21H4031.71V141.064H4029.21ZM4029.21 146.393L4027.29 144.799L3963.33 222.076L3965.25 223.67L3967.18 225.264L4031.14 147.987L4029.21 146.393ZM3981.24 452.833L3979.48 451.065L3968.82 461.724L3970.58 463.492L3972.35 465.26L3983.01 454.601L3981.24 452.833ZM3970.58 463.492H3968.08V743.285H3970.58H3973.08V463.492H3970.58ZM3991.9 743.285L3989.7 742.099L3971.05 776.74L3973.25 777.926L3975.45 779.111L3994.1 744.47L3991.9 743.285ZM3970.58 743.285V745.785H3973.25V743.285V740.785H3970.58V743.285ZM3973.25 743.285V745.785H3991.9V743.285V740.785H3973.25V743.285ZM3973.25 777.926H3975.75V743.285H3973.25H3970.75V777.926H3973.25ZM3973.25 791.249H3975.75V777.926H3973.25H3970.75V791.249H3973.25ZM4015.89 1444.1L4015.9 1441.6L3978.59 1441.43L3978.58 1443.93L3978.57 1446.43L4015.88 1446.6L4015.89 1444.1ZM3973.25 791.249L3970.75 791.27L3976.08 1443.95L3978.58 1443.93L3981.08 1443.91L3975.75 791.229L3973.25 791.249ZM572.795 2211.53L572.044 2209.15L276.236 2302.41L276.988 2304.8L277.74 2307.18L573.547 2213.92L572.795 2211.53ZM572.795 2211.53L571.951 2213.88L831.782 2307.15L832.626 2304.8L833.471 2302.44L573.64 2209.18L572.795 2211.53ZM575.46 2260.83L574.73 2258.44L430.824 2302.4L431.554 2304.8L432.285 2307.19L576.191 2263.22L575.46 2260.83ZM575.46 2260.83L574.624 2263.18L698.544 2307.15L699.38 2304.8L700.216 2302.44L576.296 2258.47L575.46 2260.83ZM1314.98 2207.53L1314.18 2205.17L1027.7 2302.43L1028.5 2304.8L1029.3 2307.16L1315.78 2209.9L1314.98 2207.53ZM1314.98 2207.53L1314.14 2209.89L1585.96 2307.15L1586.8 2304.8L1587.64 2302.44L1315.82 2205.18L1314.98 2207.53ZM1306.98 2260.83L1306.23 2258.44L1167.65 2302.41L1168.41 2304.8L1169.16 2307.18L1307.74 2263.21L1306.98 2260.83ZM1306.98 2260.83L1306.23 2263.21L1446.14 2307.18L1446.89 2304.8L1447.64 2302.41L1307.73 2258.44L1306.98 2260.83ZM2035.84 2210.2L2035.02 2207.84L1764.53 2302.44L1765.35 2304.8L1766.18 2307.16L2036.67 2212.56L2035.84 2210.2ZM2035.84 2210.2L2035.02 2212.56L2306.84 2307.16L2307.67 2304.8L2308.49 2302.43L2036.66 2207.84L2035.84 2210.2ZM2033.18 2260.83L2032.39 2258.45L1899.15 2302.42L1899.93 2304.8L1900.71 2307.17L2033.96 2263.2L2033.18 2260.83ZM2033.18 2260.83L2032.38 2263.2L2162.96 2307.16L2163.76 2304.8L2164.56 2302.43L2033.98 2258.46L2033.18 2260.83ZM2764.7 2211.53L2763.9 2209.16L2488.08 2302.43L2488.88 2304.8L2489.68 2307.16L2765.5 2213.9L2764.7 2211.53ZM2764.7 2211.53L2763.88 2213.89L3031.71 2307.16L3032.53 2304.8L3033.35 2302.43L2765.52 2209.17L2764.7 2211.53ZM2752.71 2256.83L2751.97 2254.44L2596.08 2302.41L2596.81 2304.8L2597.55 2307.18L2753.44 2259.22L2752.71 2256.83ZM2752.71 2256.83L2751.94 2259.21L2899.84 2307.17L2900.61 2304.8L2901.38 2302.42L2753.48 2254.45L2752.71 2256.83ZM3488.23 2214.2L3487.46 2211.82L3206.31 2302.42L3207.08 2304.8L3207.85 2307.17L3489 2216.58L3488.23 2214.2ZM3488.23 2214.2L3487.43 2216.56L3755.26 2307.16L3756.06 2304.8L3756.86 2302.43L3489.03 2211.83L3488.23 2214.2ZM3469.58 2256.83L3468.82 2254.45L3318.25 2302.41L3319.01 2304.8L3319.77 2307.18L3470.33 2259.21L3469.58 2256.83ZM3469.58 2256.83L3468.82 2259.21L3620.72 2307.18L3621.48 2304.8L3622.23 2302.41L3470.33 2254.45L3469.58 2256.83ZM17.1571 2304.8V2307.3H276.988V2304.8V2302.3H17.1571V2304.8ZM276.988 2304.8V2307.3H431.554V2304.8V2302.3H276.988V2304.8ZM431.554 2304.8V2307.3H699.38V2304.8V2302.3H431.554V2304.8ZM699.38 2304.8V2307.3H832.626V2304.8V2302.3H699.38V2304.8ZM832.626 2304.8V2307.3H1028.5V2304.8V2302.3H832.626V2304.8ZM1028.5 2304.8V2307.3H1168.41V2304.8V2302.3H1028.5V2304.8ZM1168.41 2304.8V2307.3H1446.89V2304.8V2302.3H1168.41V2304.8ZM1446.89 2304.8V2307.3H1586.8V2304.8V2302.3H1446.89V2304.8ZM1586.8 2304.8V2307.3H1765.35V2304.8V2302.3H1586.8V2304.8ZM1765.35 2304.8V2307.3H1899.93V2304.8V2302.3H1765.35V2304.8ZM1899.93 2304.8V2307.3H2163.76V2304.8V2302.3H1899.93V2304.8ZM2163.76 2304.8V2307.3H2307.67V2304.8V2302.3H2163.76V2304.8ZM2307.67 2304.8V2307.3H2488.88V2304.8V2302.3H2307.67V2304.8ZM2488.88 2304.8V2307.3H2596.81V2304.8V2302.3H2488.88V2304.8ZM2596.81 2304.8V2307.3H2900.61V2304.8V2302.3H2596.81V2304.8ZM2900.61 2304.8V2307.3H3032.53V2304.8V2302.3H2900.61V2304.8ZM3032.53 2304.8V2307.3H3207.08V2304.8V2302.3H3032.53V2304.8ZM3207.08 2304.8V2307.3H3319.01V2304.8V2302.3H3207.08V2304.8ZM3319.01 2304.8V2307.3H3621.48V2304.8V2302.3H3319.01V2304.8ZM3621.48 2304.8V2307.3H3756.06V2304.8V2302.3H3621.48V2304.8ZM3756.06 2304.8V2307.3H3995.9V2304.8V2302.3H3756.06V2304.8ZM434.219 2128.93V2131.43H738.021V2128.93V2126.43H434.219V2128.93ZM738.021 2128.93L740.521 2128.97L748.516 1654.65L746.016 1654.61L743.516 1654.57L735.522 2128.88L738.021 2128.93ZM746.016 1654.61V1652.11H450.209V1654.61V1657.11H746.016V1654.61ZM450.209 1654.61L447.71 1654.53L431.72 2128.84L434.219 2128.93L436.718 2129.01L452.707 1654.69L450.209 1654.61ZM1164.41 2128.93V2131.43H1460.22V2128.93V2126.43H1164.41V2128.93ZM1460.22 2128.93L1462.72 2128.97L1470.71 1659.98L1468.21 1659.94L1465.71 1659.9L1457.72 2128.88L1460.22 2128.93ZM1468.21 1659.94V1657.44H1177.73V1659.94V1662.44H1468.21V1659.94ZM1177.73 1659.94L1175.24 1659.87L1161.91 2128.85L1164.41 2128.93L1166.91 2129L1180.23 1660.01L1177.73 1659.94ZM1883.94 2131.59V2134.09H2179.75V2131.59V2129.09H1883.94V2131.59ZM2179.75 2131.59H2182.25V1657.27H2179.75H2177.25V2131.59H2179.75ZM2179.75 1657.27V1654.77H1886.61V1657.27V1659.77H2179.75V1657.27ZM1886.61 1657.27L1884.11 1657.26L1881.44 2131.58L1883.94 2131.59L1886.44 2131.6L1889.11 1657.29L1886.61 1657.27ZM3307.02 2128.93V2131.43H3592.16V2128.93V2126.43H3307.02V2128.93ZM3592.16 2128.93H3594.66V1665.27H3592.16H3589.66V2128.93H3592.16ZM3592.16 1665.27V1662.77H3307.02V1665.27V1667.77H3592.16V1665.27ZM3307.02 1665.27H3304.52V2128.93H3307.02H3309.52V1665.27H3307.02ZM2598.14 2128.93L2598.19 2131.42L2894 2126.1L2893.95 2123.6L2893.91 2121.1L2598.1 2126.43L2598.14 2128.93ZM2893.95 2123.6L2896.45 2123.57L2891.12 1659.91L2888.62 1659.94L2886.12 1659.97L2891.45 2123.62L2893.95 2123.6ZM2888.62 1659.94V1657.44H2598.14V1659.94V1662.44H2888.62V1659.94ZM2598.14 1659.94H2595.64V2128.93H2598.14H2600.64V1659.94H2598.14ZM396.91 767.267V769.767H398.242V767.267V764.767H396.91V767.267ZM394.245 1332.18L396.745 1332.19L399.41 767.279L396.91 767.267L394.41 767.255L391.745 1332.17L394.245 1332.18ZM833.959 1356.16L833.973 1353.66L380.935 1351L380.92 1353.5L380.906 1356L833.944 1358.66L833.959 1356.16ZM380.92 1353.5L383.04 1354.82L396.365 1333.51L394.245 1332.18L392.125 1330.86L378.8 1352.17L380.92 1353.5ZM833.959 1356.16L836.457 1356.26L857.777 770.023L855.278 769.932L852.78 769.841L831.46 1356.07L833.959 1356.16ZM855.278 769.932H857.778V759.273H855.278H852.778V769.932H855.278ZM855.278 759.273L857.586 758.311L844.261 726.335L841.953 727.297L839.646 728.258L852.971 760.235L855.278 759.273ZM841.953 727.297L843.79 728.992L859.78 711.672L857.943 709.976L856.106 708.28L840.117 725.601L841.953 727.297ZM857.943 709.976H855.443V719.302H857.943H860.443V709.976H857.943ZM857.943 719.302V721.802H905.912V719.302V716.802H857.943V719.302ZM857.943 709.976H860.443V674.003H857.943H855.443V709.976H857.943ZM402.24 713.973V716.473H408.902V713.973V711.473H402.24V713.973ZM408.902 713.973L406.624 715.002L422.269 749.643L424.548 748.614L426.826 747.585L411.18 712.944L408.902 713.973ZM424.548 748.614L422.269 749.643L425.278 756.305L427.557 755.276L429.835 754.247L426.826 747.585L424.548 748.614ZM427.557 713.973L425.066 713.757L422.057 748.398L424.548 748.614L427.038 748.83L430.047 714.189L427.557 713.973ZM616.767 571.197L616.563 568.705C542.059 574.809 494.177 604.824 464.923 636.475C450.314 652.281 440.37 668.473 434.071 682.257C427.807 695.964 425.057 707.492 425.057 713.973H427.557H430.057C430.057 708.518 432.49 697.745 438.618 684.335C444.712 671.001 454.369 655.26 468.595 639.869C497.011 609.125 543.734 579.688 616.971 573.689L616.767 571.197ZM591.45 472.818H593.95V415.527H591.45H588.95V472.818H591.45ZM591.45 415.527V418.027H674.063V415.527V413.027H591.45V415.527ZM674.063 415.527H671.563V472.818H674.063H676.563V415.527H674.063ZM671.475 567.415L670.855 564.993L618.812 578.317L619.432 580.738L620.052 583.16L672.095 569.837L671.475 567.415ZM619.432 580.738L621.84 580.066L619.175 570.525L616.767 571.197L614.359 571.87L617.024 581.411L619.432 580.738ZM857.943 709.976H860.443C860.443 678.21 838.421 645.258 804.229 618.085C769.943 590.839 722.98 569.024 672.075 559.627L671.621 562.086L671.167 564.544C721.306 573.8 767.504 595.287 801.118 622C834.826 648.787 855.443 680.455 855.443 709.976H857.943ZM616.767 571.197L619.188 570.574L609.587 533.268L607.166 533.891L604.745 534.514L614.346 571.82L616.767 571.197ZM607.166 533.891L609.587 533.268L593.871 472.195L591.45 472.818L589.029 473.441L604.745 534.514L607.166 533.891ZM607.166 533.891L606.841 531.412C547.602 539.185 495.896 564.631 458.969 598.175C422.075 631.688 399.74 673.48 399.74 713.973H402.24H404.74C404.74 675.302 426.13 634.76 462.331 601.876C498.498 569.023 549.255 544.011 607.492 536.369L607.166 533.891ZM674.063 472.818L671.564 472.75L669.92 532.837L672.419 532.906L674.918 532.974L676.562 472.887L674.063 472.818ZM672.419 532.906L669.92 532.837L669.122 562.017L671.621 562.086L674.12 562.154L674.918 532.974L672.419 532.906ZM671.621 562.086L669.122 562.017L668.976 567.347L671.475 567.415L673.974 567.483L674.12 562.154L671.621 562.086ZM857.943 674.003L860.44 673.887C859.164 646.456 839.186 613.464 806.343 586.017C773.403 558.49 727.177 536.224 672.684 530.42L672.419 532.906L672.154 535.392C725.612 541.086 770.917 562.928 803.137 589.854C835.454 616.861 854.262 648.669 855.446 674.119L857.943 674.003ZM85.1129 713.973V716.473H338.281V713.973V711.473H85.1129V713.973ZM338.281 713.973V716.473H402.24V713.973V711.473H338.281V713.973ZM338.281 713.973H340.781C340.781 654.19 371.357 594.517 418.126 549.735C464.887 504.961 527.585 475.318 591.45 475.318V472.818V470.318C526.066 470.318 462.179 500.631 414.668 546.124C367.165 591.608 335.781 652.513 335.781 713.973H338.281ZM674.063 472.818V475.318C743.821 475.318 801.167 509.533 841.14 551.649C861.121 572.702 876.715 595.685 887.303 617.252C897.913 638.861 903.412 658.872 903.412 674.003H905.912H908.412C908.412 657.823 902.585 637.031 891.792 615.048C880.977 593.022 865.092 569.622 844.766 548.207C804.125 505.386 745.546 470.318 674.063 470.318V472.818ZM905.912 719.302H908.412V674.003H905.912H903.412V719.302H905.912ZM338.281 1426.97L338.293 1424.47L53.1453 1423.14L53.1337 1425.64L53.1221 1428.14L338.27 1429.47L338.281 1426.97ZM85.1129 767.267V769.767H335.616V767.267V764.767H85.1129V767.267ZM335.616 767.267V769.767H396.91V767.267V764.767H335.616V767.267ZM338.281 1426.97L340.781 1426.96L338.116 767.257L335.616 767.267L333.117 767.277L335.781 1426.98L338.281 1426.97ZM884.592 1429.52L884.604 1427.02L338.293 1424.47L338.281 1426.97L338.27 1429.47L884.581 1432.02L884.592 1429.52ZM884.592 1429.52L887.092 1429.55L895.087 769.962L892.587 769.932L890.087 769.901L882.093 1429.49L884.592 1429.52ZM892.587 769.932V767.432H855.278V769.932V772.432H892.587V769.932ZM892.587 769.932L892.474 772.429L1068.36 780.423L1068.47 777.926L1068.59 775.428L892.701 767.434L892.587 769.932ZM1063.14 1430.35L1063.15 1427.85L884.604 1427.02L884.592 1429.52L884.581 1432.02L1063.13 1432.85L1063.14 1430.35ZM1068.47 777.926L1065.97 777.905L1060.64 1430.33L1063.14 1430.35L1065.64 1430.37L1070.97 777.946L1068.47 777.926ZM1124.44 777.926L1126.74 778.887L1146.73 730.923L1144.42 729.961L1142.12 729L1122.13 776.964L1124.44 777.926ZM1103.12 1353.5V1356H1545.5V1353.5V1351H1103.12V1353.5ZM1545.5 1353.5L1547.99 1353.58L1566.65 767.346L1564.15 767.267L1561.65 767.187L1543 1353.42L1545.5 1353.5ZM1564.15 767.267L1565.92 765.499L1563.25 762.834L1561.49 764.602L1559.72 766.37L1562.38 769.035L1564.15 767.267ZM1561.49 764.602H1563.99V724.632H1561.49H1558.99V764.602H1561.49ZM1838.64 727.297L1836.3 726.419L1820.31 769.054L1822.65 769.932L1824.99 770.81L1840.98 728.174L1838.64 727.297ZM1822.65 769.932L1823 767.457L1804.35 764.792L1803.99 767.267L1803.64 769.742L1822.29 772.407L1822.65 769.932ZM1601.46 767.267V764.767H1564.15V767.267V769.767H1601.46V767.267ZM1593.46 1432.82L1593.48 1430.32L1063.15 1427.85L1063.14 1430.35L1063.13 1432.85L1593.45 1435.32L1593.46 1432.82ZM1601.46 767.267L1598.96 767.237L1590.96 1432.79L1593.46 1432.82L1595.96 1432.85L1603.96 767.297L1601.46 767.267ZM1785.34 1433.71L1785.35 1431.21L1593.48 1430.32L1593.46 1432.82L1593.45 1435.32L1785.33 1436.21L1785.34 1433.71ZM1803.99 767.267V764.767H1793.33V767.267V769.767H1803.99V767.267ZM1793.33 767.267V764.767H1601.46V767.267V769.767H1793.33V767.267ZM1785.34 1433.71L1787.84 1433.74L1795.83 767.297L1793.33 767.267L1790.83 767.237L1782.84 1433.68L1785.34 1433.71ZM1822.65 769.932L1820.15 769.909L1814.82 1361.47L1817.32 1361.49L1819.82 1361.52L1825.15 769.954L1822.65 769.932ZM1817.32 1361.49L1817.33 1363.99L2265.04 1361.33L2265.03 1358.83L2265.01 1356.33L1817.3 1358.99L1817.32 1361.49ZM2491.55 785.92H2494.05V783.255H2491.55H2489.05V785.92H2491.55ZM2531.52 783.255H2529.02V1361.49H2531.52H2534.02V783.255H2531.52ZM2531.52 1361.49V1363.99H2973.9V1361.49V1358.99H2531.52V1361.49ZM3016.54 788.585L3014.04 788.554L3006.04 1439.38L3008.54 1439.41L3011.04 1439.44L3019.04 788.615L3016.54 788.585ZM1068.47 777.926V780.426H1116.44V777.926V775.426H1068.47V777.926ZM1116.44 777.926V780.426H1124.44V777.926V775.426H1116.44V777.926ZM1116.44 777.926L1113.94 777.868L1100.62 1353.44L1103.12 1353.5L1105.62 1353.56L1118.94 777.984L1116.44 777.926ZM2302.34 1436.12L2302.35 1433.62L1785.35 1431.21L1785.34 1433.71L1785.33 1436.21L2302.32 1438.62L2302.34 1436.12ZM2310.33 781.5L2310.27 784L2491.49 788.419L2491.55 785.92L2491.61 783.421L2310.39 779.001L2310.33 781.5ZM2302.34 1436.12L2304.84 1436.15L2312.83 781.531L2310.33 781.5L2307.83 781.47L2299.84 1436.09L2302.34 1436.12ZM3008.54 1439.41L3008.55 1436.91L2488.89 1434.49L2488.88 1436.99L2488.87 1439.49L3008.53 1441.91L3008.54 1439.41ZM2488.88 1436.99L2488.89 1434.49L2302.35 1433.62L2302.34 1436.12L2302.32 1438.62L2488.87 1439.49L2488.88 1436.99ZM2491.55 785.92L2489.05 785.91L2486.38 1436.98L2488.88 1436.99L2491.38 1437L2494.05 785.93L2491.55 785.92ZM3195.09 1440.28L3195.1 1437.78L3008.55 1436.91L3008.54 1439.41L3008.53 1441.91L3195.08 1442.78L3195.09 1440.28ZM3195.09 1440.28L3197.59 1440.26L3192.26 788.564L3189.76 788.585L3187.26 788.605L3192.59 1440.3L3195.09 1440.28ZM3189.76 788.585L3189.8 786.085L3019.24 783.42L3019.2 785.92L3019.16 788.42L3189.72 791.084L3189.76 788.585ZM3019.2 785.92L3017.44 784.152L3014.77 786.817L3016.54 788.585L3018.31 790.352L3020.97 787.688L3019.2 785.92ZM3232.4 788.585H3229.9V1369.49H3232.4H3234.9V788.585H3232.4ZM3232.4 1369.49L3232.37 1371.99L3669.42 1377.32L3669.45 1374.82L3669.48 1372.32L3232.43 1366.99L3232.4 1369.49ZM3669.45 1374.82L3671.95 1374.86L3682.61 793.96L3680.11 793.914L3677.61 793.868L3666.95 1374.77L3669.45 1374.82ZM3978.58 1443.93L3978.59 1441.43L3706.77 1440.16L3706.76 1442.66L3706.74 1445.16L3978.57 1446.43L3978.58 1443.93ZM3706.76 1442.66L3706.77 1440.16L3195.1 1437.78L3195.09 1440.28L3195.08 1442.78L3706.74 1445.16L3706.76 1442.66ZM3680.11 793.914L3680.13 796.414L3725.43 796.002L3725.41 793.502L3725.39 791.002L3680.08 791.414L3680.11 793.914ZM3725.41 793.502L3725.43 796.002L3973.27 793.749L3973.25 791.249L3973.23 788.749L3725.39 791.002L3725.41 793.502ZM3706.76 1442.66L3709.25 1442.73L3727.91 793.574L3725.41 793.502L3722.91 793.43L3704.26 1442.59L3706.76 1442.66ZM2265.03 1358.83L2267.53 1358.86L2275.3 796.613L2272.8 796.579L2270.3 796.544L2262.53 1358.79L2265.03 1358.83ZM2272.8 796.579L2275.3 796.613L2275.52 780.625L2273.02 780.59L2270.52 780.556L2270.3 796.544L2272.8 796.579ZM2246.37 759.273L2244.33 760.718L2270.76 798.024L2272.8 796.579L2274.84 795.133L2248.41 757.828L2246.37 759.273ZM2273.02 713.973H2275.52V684.661H2273.02H2270.52V713.973H2273.02ZM2246.37 759.273L2248.53 760.541L2264.2 733.894L2262.05 732.626L2259.89 731.358L2244.22 758.005L2246.37 759.273ZM2262.05 732.626L2264.2 733.894L2275.18 715.241L2273.02 713.973L2270.87 712.705L2259.89 731.358L2262.05 732.626ZM2273.02 780.59L2272.96 783.09L2280.96 783.285L2281.02 780.785L2281.08 778.286L2273.08 778.091L2273.02 780.59ZM2281.02 780.785L2280.96 783.285L2310.27 784L2310.33 781.5L2310.39 779.001L2281.08 778.286L2281.02 780.785ZM2266.36 732.626V730.126H2262.05V732.626V735.126H2266.36V732.626ZM2281.02 780.785L2283.41 780.058L2268.75 731.898L2266.36 732.626L2263.97 733.354L2278.62 781.513L2281.02 780.785ZM2542.18 732.626H2539.68V740.62H2542.18H2544.68V732.626H2542.18ZM2491.55 783.255V785.755H2510.2V783.255V780.755H2491.55V783.255ZM2510.2 783.255V785.755H2531.52V783.255V780.755H2510.2V783.255ZM2542.18 740.62L2540.18 739.12L2508.2 781.755L2510.2 783.255L2512.2 784.755L2544.18 742.12L2542.18 740.62ZM2542.18 732.626V730.126H2536.85V732.626V735.126H2542.18V732.626ZM2536.85 732.626H2539.35V684.661H2536.85H2534.35V732.626H2536.85ZM2536.85 732.626V730.126H2479.55V732.626V735.126H2536.85V732.626ZM2479.55 732.626V730.126H2328.99V732.626V735.126H2479.55V732.626ZM2328.99 732.626V730.126H2266.36V732.626V735.126H2328.99V732.626ZM3240.39 743.285H3237.89V748.614H3240.39H3242.89V743.285H3240.39ZM3189.76 788.585V791.085H3227.07V788.585V786.085H3189.76V788.585ZM3227.07 788.585V791.085H3232.4V788.585V786.085H3227.07V788.585ZM3240.39 748.614L3238.02 747.824L3224.7 787.794L3227.07 788.585L3229.44 789.375L3242.76 749.405L3240.39 748.614ZM2973.9 788.585V791.085H2984.56V788.585V786.085H2973.9V788.585ZM2984.56 788.585V791.085H3016.54V788.585V786.085H2984.56V788.585ZM2984.56 788.585H2987.06C2987.06 788.103 2986.91 787.675 2986.9 787.643C2986.85 787.482 2986.78 787.309 2986.72 787.143C2986.59 786.804 2986.41 786.369 2986.19 785.863C2985.75 784.846 2985.12 783.452 2984.35 781.781C2982.81 778.434 2980.68 773.917 2978.32 768.957C2973.6 759.034 2967.93 747.303 2964.16 739.528L2961.91 740.62L2959.66 741.712C2963.43 749.481 2969.09 761.199 2973.81 771.106C2976.17 776.061 2978.28 780.554 2979.81 783.872C2980.57 785.533 2981.18 786.884 2981.6 787.847C2981.81 788.331 2981.96 788.694 2982.05 788.939C2982.1 789.065 2982.12 789.13 2982.13 789.151C2982.18 789.302 2982.06 789 2982.06 788.585H2984.56ZM2961.91 740.62L2959.6 739.646L2944.95 774.287L2947.25 775.261L2949.55 776.235L2964.21 741.594L2961.91 740.62ZM2947.25 775.261H2944.75V780.59H2947.25H2949.75V775.261H2947.25ZM2947.25 780.59L2945.33 782.191L2960.59 800.504L2962.51 798.903L2964.43 797.302L2949.17 778.99L2947.25 780.59ZM2973.9 788.585L2972.22 786.732L2960.83 797.05L2962.51 798.903L2964.19 800.756L2975.58 790.437L2973.9 788.585ZM3632.14 791.249L3630.37 793.017L3643.69 806.341L3645.46 804.573L3647.23 802.805L3633.9 789.481L3632.14 791.249ZM3664.12 743.285L3661.73 744.038L3673.93 782.676L3676.32 781.923L3678.7 781.17L3666.5 742.532L3664.12 743.285ZM3676.32 781.923L3673.93 782.676L3677.72 794.667L3680.11 793.914L3682.49 793.161L3678.7 781.17L3676.32 781.923ZM3645.46 804.573L3646.94 806.588L3677.8 783.938L3676.32 781.923L3674.84 779.907L3643.98 802.557L3645.46 804.573ZM3664.12 743.285L3662.04 741.898L3640.72 773.874L3642.8 775.261L3644.88 776.648L3666.2 744.672L3664.12 743.285ZM3642.8 775.261L3640.72 773.874L3630.06 789.862L3632.14 791.249L3634.22 792.636L3644.88 776.648L3642.8 775.261ZM3642.8 775.261H3645.3C3645.3 733.217 3624.32 684.701 3592.24 646.741C3560.16 608.791 3516.56 580.903 3470.91 580.903V583.403V585.903C3514.54 585.903 3556.87 612.641 3588.42 649.969C3619.96 687.286 3640.3 734.7 3640.3 775.261H3642.8ZM3236.39 692.656L3238.51 693.991C3270.16 643.882 3325.41 595.23 3416.28 595.23V592.73V590.23C3323.26 590.23 3266.59 640.171 3234.28 691.321L3236.39 692.656ZM3236.39 692.656L3238.79 693.384C3252.84 647.265 3309.39 555.259 3422.94 555.259V552.759V550.259C3306.24 550.259 3248.37 644.782 3234 691.927L3236.39 692.656ZM3664.12 743.285H3666.62C3666.62 705.949 3648.77 659.422 3616.76 622.242C3584.7 585.011 3538.24 556.921 3480.86 556.921V559.421V561.921C3536.48 561.921 3581.64 589.124 3612.97 625.504C3644.33 661.937 3661.62 707.342 3661.62 743.285H3664.12ZM3181.76 742.724H3184.26C3184.26 682.779 3198.96 629.441 3235.71 588.545C3272.46 547.646 3331.58 518.84 3421.14 508.611L3420.85 506.127L3420.57 503.643C3330.24 513.96 3269.81 543.112 3231.99 585.203C3194.17 627.299 3179.26 681.986 3179.26 742.724H3181.76ZM3970.58 743.285V740.785H3725.41V743.285V745.785H3970.58V743.285ZM3725.41 743.285V740.785H3664.12V743.285V745.785H3725.41V743.285ZM3725.41 743.285H3727.91C3727.91 692.884 3713.78 637.801 3677.61 593.197C3641.4 548.543 3583.3 514.632 3495.84 506.303L3495.6 508.792L3495.36 511.28C3581.68 519.501 3638.48 552.874 3673.73 596.347C3709.02 639.87 3722.91 693.76 3722.91 743.285H3725.41ZM3181.76 742.724L3181.74 745.224L3227.04 745.657L3227.07 743.157L3227.09 740.657L3181.79 740.224L3181.76 742.724ZM3227.07 743.157L3227.04 745.657L3240.37 745.785L3240.39 743.285L3240.42 740.785L3227.09 740.657L3227.07 743.157ZM3236.39 692.656L3233.94 692.202L3224.61 742.703L3227.07 743.157L3229.53 743.611L3238.85 693.11L3236.39 692.656ZM3485.57 551.427L3488 551.999L3498.03 509.364L3495.6 508.792L3493.16 508.219L3483.13 550.854L3485.57 551.427ZM3495.6 508.792L3498.03 509.364L3509.32 461.4L3506.89 460.827L3504.45 460.255L3493.16 508.219L3495.6 508.792ZM3506.89 460.827L3506.81 458.328L3418.87 460.993L3418.94 463.492L3419.02 465.991L3506.96 463.326L3506.89 460.827ZM3418.94 463.492L3416.45 463.604L3418.35 506.239L3420.85 506.127L3423.35 506.015L3421.44 463.38L3418.94 463.492ZM3420.85 506.127L3418.35 506.239L3420.44 552.871L3422.94 552.759L3425.44 552.647L3423.35 506.015L3420.85 506.127ZM3422.94 552.759L3420.47 552.348L3413.81 592.319L3416.28 592.73L3418.74 593.141L3425.41 553.17L3422.94 552.759ZM3458.92 596.727L3458.84 594.228L3416.2 595.56L3416.28 598.059L3416.36 600.558L3458.99 599.225L3458.92 596.727ZM3416.28 598.059H3418.78V592.73H3416.28H3413.78V598.059H3416.28ZM3458.92 596.727L3461.07 597.994L3468.91 584.671L3466.75 583.403L3464.6 582.136L3456.76 595.459L3458.92 596.727ZM3466.75 583.403L3468.91 584.671L3483.02 560.689L3480.86 559.421L3478.71 558.153L3464.6 582.135L3466.75 583.403ZM3480.86 559.421L3483.02 560.688L3487.72 552.694L3485.57 551.427L3483.41 550.159L3478.71 558.153L3480.86 559.421ZM3470.91 583.403V580.903H3466.75V583.403V585.903H3470.91V583.403ZM343.611 1561.35L345.782 1560.11L324.462 1522.8L322.292 1524.04L320.121 1525.28L341.441 1562.59L343.611 1561.35ZM322.292 1524.04V1526.54H844.618V1524.04V1521.54H322.292V1524.04ZM844.618 1524.04L842.417 1525.23L861.072 1559.87L863.273 1558.68L865.474 1557.5L846.82 1522.85L844.618 1524.04ZM863.273 1558.68L861.273 1557.18L845.283 1578.5L847.283 1580L849.283 1581.5L865.273 1560.18L863.273 1558.68ZM847.283 1580L849.427 1578.71L841.432 1565.39L839.289 1566.68L837.145 1567.96L845.14 1581.28L847.283 1580ZM355.603 1561.47L355.63 1558.97L343.638 1558.85L343.611 1561.35L343.584 1563.85L355.577 1563.97L355.603 1561.47ZM370.261 1580L372.221 1578.45L357.564 1559.92L355.603 1561.47L353.643 1563.03L368.3 1581.55L370.261 1580ZM370.261 1580H367.761V1694.58H370.261H372.761V1580H370.261ZM370.261 1694.58V1697.08H407.57V1694.58V1692.08H370.261V1694.58ZM407.57 1694.58H410.07V1587.99H407.57H405.07V1694.58H407.57ZM423.559 1562.21L423.586 1559.71L355.63 1558.97L355.603 1561.47L355.577 1563.97L423.532 1564.71L423.559 1562.21ZM407.57 1587.99L409.694 1589.31L425.684 1563.52L423.559 1562.21L421.435 1560.89L405.445 1586.68L407.57 1587.99ZM775.33 1565.99L775.357 1563.49L423.586 1559.71L423.559 1562.21L423.532 1564.71L775.303 1568.49L775.33 1565.99ZM785.99 1582.66L788.096 1581.32L777.437 1564.64L775.33 1565.99L773.224 1567.33L783.884 1584.01L785.99 1582.66ZM785.99 1582.66H783.49V1697.24H785.99H788.49V1582.66H785.99ZM785.99 1697.24V1699.74H817.969V1697.24V1694.74H785.99V1697.24ZM817.969 1697.24L820.468 1697.3L823.133 1585.39L820.634 1585.33L818.135 1585.27L815.47 1697.19L817.969 1697.24ZM839.289 1566.68L839.315 1564.18L832.653 1564.1L832.626 1566.6L832.599 1569.1L839.262 1569.17L839.289 1566.68ZM832.626 1566.6L832.653 1564.1L775.357 1563.49L775.33 1565.99L775.303 1568.49L832.599 1569.1L832.626 1566.6ZM820.634 1585.33L822.739 1586.68L834.731 1567.95L832.626 1566.6L830.521 1565.26L818.529 1583.98L820.634 1585.33ZM844.618 1524.04L842.138 1523.73L836.808 1566.36L839.289 1566.68L841.769 1566.99L847.099 1524.35L844.618 1524.04ZM1092.46 1702.57V1705.07H1132.43V1702.57V1700.07H1092.46V1702.57ZM1132.43 1702.57H1134.93V1595.99H1132.43H1129.93V1702.57H1132.43ZM1132.43 1595.99L1134.41 1597.52L1157.06 1568.2L1155.08 1566.68L1153.1 1565.15L1130.45 1594.46L1132.43 1595.99ZM1155.08 1566.68V1564.18H1073.8V1566.68V1569.18H1155.08V1566.68ZM1073.8 1566.68L1071.64 1567.93L1090.3 1599.91L1092.46 1598.65L1094.62 1597.39L1075.96 1565.42L1073.8 1566.68ZM1092.46 1598.65H1089.96V1702.57H1092.46H1094.96V1598.65H1092.46ZM1073.8 1566.68V1564.18H1057.81V1566.68V1569.18H1073.8V1566.68ZM1057.81 1566.68H1060.31V1529.37H1057.81H1055.31V1566.68H1057.81ZM1057.81 1529.37V1531.87H1577.47V1529.37V1526.87H1057.81V1529.37ZM1577.47 1529.37L1575.07 1530.06L1585.73 1567.36L1588.13 1566.68L1590.54 1565.99L1579.88 1528.68L1577.47 1529.37ZM1588.13 1566.68V1564.18H1561.49V1566.68V1569.18H1588.13V1566.68ZM1577.47 1529.37L1575.18 1528.38L1559.19 1565.69L1561.49 1566.68L1563.78 1567.66L1579.77 1530.35L1577.47 1529.37ZM1561.49 1566.68V1564.18H1556.16V1566.68V1569.18H1561.49V1566.68ZM1556.16 1566.68L1554.05 1565.33L1535.39 1594.64L1537.5 1595.99L1539.61 1597.33L1558.26 1568.02L1556.16 1566.68ZM1537.5 1595.99H1535V1705.24H1537.5H1540V1595.99H1537.5ZM1537.5 1705.24V1702.74H1510.85V1705.24V1707.74H1537.5V1705.24ZM1510.85 1705.24H1513.35V1585.33H1510.85H1508.35V1705.24H1510.85ZM1556.16 1566.68V1564.18H1493.53V1566.68V1569.18H1556.16V1566.68ZM1493.53 1566.68V1564.18H1155.08V1566.68V1569.18H1493.53V1566.68ZM1510.85 1585.33L1512.68 1583.63L1495.36 1564.97L1493.53 1566.68L1491.7 1568.38L1509.02 1587.03L1510.85 1585.33ZM1785.34 1529.37L1783.07 1530.43L1801.73 1570.4L1803.99 1569.34L1806.26 1568.28L1787.6 1528.31L1785.34 1529.37ZM2302.34 1569.34H2304.84V1532.03H2302.34H2299.84V1569.34H2302.34ZM2302.34 1532.03L2302.35 1529.53L1785.35 1526.87L1785.34 1529.37L1785.33 1531.87L2302.32 1534.53L2302.34 1532.03ZM1803.99 1569.34V1571.84H1809.32V1569.34V1566.84H1803.99V1569.34ZM1809.32 1569.34L1807.18 1570.63L1815.17 1583.95L1817.32 1582.66L1819.46 1581.38L1811.47 1568.05L1809.32 1569.34ZM1817.32 1582.66H1814.82V1699.91H1817.32H1819.82V1582.66H1817.32ZM1817.32 1699.91V1702.41H1854.63V1699.91V1697.41H1817.32V1699.91ZM1854.63 1699.91L1857.13 1699.98L1859.79 1601.38L1857.29 1601.32L1854.79 1601.25L1852.13 1699.84L1854.63 1699.91ZM1809.32 1569.34V1571.84H1871.95V1569.34V1566.84H1809.32V1569.34ZM1857.29 1601.32L1859.57 1602.36L1874.22 1570.38L1871.95 1569.34L1869.68 1568.3L1855.02 1600.27L1857.29 1601.32ZM1871.95 1569.34V1571.84H2214.39V1569.34V1566.84H1871.95V1569.34ZM2214.39 1569.34L2212.16 1570.46L2220.15 1586.45L2222.39 1585.33L2224.62 1584.21L2216.63 1568.22L2214.39 1569.34ZM2222.39 1585.33H2219.89V1707.9H2222.39H2224.89V1585.33H2222.39ZM2222.39 1707.9V1710.4H2257.03V1707.9V1705.4H2222.39V1707.9ZM2257.03 1707.9H2259.53V1598.65H2257.03H2254.53V1707.9H2257.03ZM2214.39 1569.34V1571.84H2273.02V1569.34V1566.84H2214.39V1569.34ZM2273.02 1569.34V1571.84H2302.34V1569.34V1566.84H2273.02V1569.34ZM2257.03 1598.65L2259.23 1599.85L2275.22 1570.54L2273.02 1569.34L2270.83 1568.14L2254.84 1597.45L2257.03 1598.65ZM2502.21 1529.37L2500.06 1530.66L2524.05 1570.63L2526.19 1569.34L2528.33 1568.05L2504.35 1528.08L2502.21 1529.37ZM2997.88 1569.34L2999.99 1570.69L3023.97 1533.39L3021.87 1532.03L3019.76 1530.68L2995.78 1567.99L2997.88 1569.34ZM3021.87 1532.03L3021.88 1529.53L2502.22 1526.87L2502.21 1529.37L2502.19 1531.87L3021.85 1534.53L3021.87 1532.03ZM2502.21 1529.37L2499.74 1528.99L2494.41 1563.63L2496.88 1564.01L2499.35 1564.39L2504.68 1529.75L2502.21 1529.37ZM2496.88 1564.01L2494.88 1565.51L2510.87 1586.83L2512.87 1585.33L2514.87 1583.83L2498.88 1562.51L2496.88 1564.01ZM2512.87 1585.33L2514.79 1586.93L2524.11 1575.74L2522.19 1574.14L2520.27 1572.54L2510.95 1583.73L2512.87 1585.33ZM2522.19 1574.14L2524.11 1575.74L2528.11 1570.94L2526.19 1569.34L2524.27 1567.74L2520.27 1572.54L2522.19 1574.14ZM2522.19 1574.14L2520.05 1575.42L2534.7 1599.93L2536.85 1598.65L2539 1597.37L2524.34 1572.85L2522.19 1574.14ZM2536.85 1598.65H2534.35V1705.24H2536.85H2539.35V1598.65H2536.85ZM2536.85 1705.24V1707.74H2568.83V1705.24V1702.74H2536.85V1705.24ZM2568.83 1705.24H2571.33V1593.32H2568.83H2566.33V1705.24H2568.83ZM2526.19 1569.34V1571.84H2582.15V1569.34V1566.84H2526.19V1569.34ZM2568.83 1593.32L2571.01 1594.54L2584.34 1570.55L2582.15 1569.34L2579.97 1568.13L2566.64 1592.11L2568.83 1593.32ZM2582.15 1569.34V1571.84H2928.59V1569.34V1566.84H2582.15V1569.34ZM2928.59 1569.34L2926.22 1570.13L2934.22 1594.11L2936.59 1593.32L2938.96 1592.53L2930.97 1568.55L2928.59 1569.34ZM2936.59 1593.32L2934.09 1593.21L2928.76 1715.79L2931.26 1715.9L2933.76 1716.01L2939.09 1593.43L2936.59 1593.32ZM2931.26 1715.9V1718.4H2963.24V1715.9V1713.4H2931.26V1715.9ZM2963.24 1715.9L2965.74 1715.95L2968.4 1593.38L2965.9 1593.32L2963.4 1593.27L2960.74 1715.84L2963.24 1715.9ZM2928.59 1569.34V1571.84H2988.56V1569.34V1566.84H2928.59V1569.34ZM2988.56 1569.34V1571.84H2997.88V1569.34V1566.84H2988.56V1569.34ZM2965.9 1593.32L2967.72 1595.04L2990.37 1571.06L2988.56 1569.34L2986.74 1567.62L2964.09 1591.61L2965.9 1593.32ZM3221.74 1537.36L3219.42 1538.29L3235.41 1578.26L3237.73 1577.33L3240.05 1576.41L3224.06 1536.43L3221.74 1537.36ZM3709.42 1577.33L3711.66 1578.45L3731.64 1538.48L3729.41 1537.36L3727.17 1536.25L3707.18 1576.22L3709.42 1577.33ZM3729.41 1537.36V1534.86H3221.74V1537.36V1539.86H3729.41V1537.36ZM3221.74 1537.36L3219.8 1535.78L3195.82 1565.09L3197.75 1566.68L3199.69 1568.26L3223.67 1538.95L3221.74 1537.36ZM3197.75 1566.68L3195.88 1568.34L3217.2 1592.32L3219.07 1590.66L3220.94 1589L3199.62 1565.01L3197.75 1566.68ZM3219.07 1590.66V1593.16H3224.4V1590.66V1588.16H3219.07V1590.66ZM3224.4 1590.66L3226.17 1592.43L3239.49 1579.1L3237.73 1577.33L3235.96 1575.57L3222.63 1588.89L3224.4 1590.66ZM3237.73 1577.33V1579.83H3240.39V1577.33V1574.83H3237.73V1577.33ZM3240.39 1577.33H3237.89V1705.24H3240.39H3242.89V1577.33H3240.39ZM3240.39 1705.24V1707.74H3277.7V1705.24V1702.74H3240.39V1705.24ZM3277.7 1705.24H3280.2V1622.63H3277.7H3275.2V1705.24H3277.7ZM3240.39 1577.33V1579.83H3299.02V1577.33V1574.83H3240.39V1577.33ZM3277.7 1622.63L3279.96 1623.7L3301.28 1578.4L3299.02 1577.33L3296.76 1576.27L3275.44 1621.57L3277.7 1622.63ZM3299.02 1577.33V1579.83H3629.47V1577.33V1574.83H3299.02V1577.33ZM3648.13 1606.65L3650.24 1605.3L3631.58 1575.99L3629.47 1577.33L3627.36 1578.68L3646.02 1607.99L3648.13 1606.65ZM3648.13 1606.65L3645.63 1606.51L3640.3 1707.77L3642.8 1707.9L3645.29 1708.04L3650.62 1606.78L3648.13 1606.65ZM3642.8 1707.9V1710.4H3674.78V1707.9V1705.4H3642.8V1707.9ZM3674.78 1707.9H3677.28V1603.98H3674.78H3672.28V1707.9H3674.78ZM3629.47 1577.33V1579.83H3696.1V1577.33V1574.83H3629.47V1577.33ZM3696.1 1577.33V1579.83H3709.42V1577.33V1574.83H3696.1V1577.33ZM3674.78 1603.98L3676.73 1605.54L3698.05 1578.9L3696.1 1577.33L3694.14 1575.77L3672.82 1602.42L3674.78 1603.98ZM2536.85 684.661L2539.34 684.861C2541.94 652.446 2562.08 620.4 2593.98 596.393C2625.86 572.408 2669.3 556.592 2718.07 556.592V554.092V551.592C2668.23 551.592 2623.73 567.752 2590.98 592.397C2558.26 617.02 2537.09 650.259 2534.36 684.462L2536.85 684.661ZM2479.55 732.626H2482.05C2482.05 649.62 2521.86 593.036 2571.63 557.118C2621.49 521.129 2681.26 505.962 2720.73 505.962V503.462V500.962C2680.25 500.962 2619.44 516.439 2568.7 553.064C2517.86 589.759 2477.05 647.756 2477.05 732.626H2479.55ZM3027.2 741.245L3027.17 743.745L3181.74 745.224L3181.76 742.724L3181.79 740.224L3027.22 738.745L3027.2 741.245ZM3027.2 741.245H3029.7C3029.7 643.448 2985.4 581.283 2933.26 543.649C2881.24 506.108 2821.43 492.968 2790.02 492.968V495.468V497.968C2820.43 497.968 2879.21 510.809 2930.33 547.703C2981.32 584.503 3024.7 645.227 3024.7 741.245H3027.2ZM2961.91 740.62L2961.88 743.12L2973.88 743.235L2973.9 740.735L2973.92 738.235L2961.93 738.12L2961.91 740.62ZM2973.9 740.735L2973.88 743.235L3027.17 743.745L3027.2 741.245L3027.22 738.745L2973.92 738.235L2973.9 740.735ZM2973.9 740.735H2976.4C2976.4 671.715 2940.64 625.02 2897.9 595.679C2855.25 566.406 2805.46 554.256 2776.69 554.256V556.756V559.256C2804.43 559.256 2853.24 571.089 2895.07 599.801C2936.8 628.446 2971.4 673.74 2971.4 740.735H2973.9ZM2973.9 740.735H2976.4C2976.4 725.944 2968.62 708.247 2956.03 690.231C2943.38 672.136 2925.67 653.395 2905.28 636.454C2864.6 602.654 2812.73 575.574 2768.7 575.574V578.074V580.574C2811.01 580.574 2861.75 606.787 2902.08 640.3C2922.2 657.014 2939.59 675.434 2951.93 693.095C2964.32 710.835 2971.4 727.489 2971.4 740.735H2973.9ZM2768.7 578.074V575.574H2718.07V578.074V580.574H2768.7V578.074ZM2718.07 578.074H2720.57V554.092H2718.07H2715.57V578.074H2718.07ZM2720.73 503.462L2718.23 503.331L2715.57 553.96L2718.07 554.092L2720.56 554.223L2723.23 503.594L2720.73 503.462ZM2720.73 503.462H2723.23V442.174H2720.73H2718.23V503.462H2720.73ZM2720.73 442.174V444.674H2792.68V442.174V439.674H2720.73V442.174ZM2792.68 442.174L2790.19 442.05L2787.52 495.343L2790.02 495.468L2792.52 495.593L2795.18 442.299L2792.68 442.174ZM2776.69 556.756L2779.08 557.502L2792.4 514.867L2790.02 514.121L2787.63 513.375L2774.31 556.01L2776.69 556.756ZM2790.02 514.121H2792.52V495.468H2790.02H2787.52V514.121H2790.02ZM2768.7 578.074L2771.04 578.952L2779.03 557.634L2776.69 556.756L2774.35 555.878L2766.36 577.196L2768.7 578.074ZM2273.02 684.661H2275.52C2275.52 666.6 2267.46 648.426 2254.66 631.445C2241.84 614.444 2224.14 598.449 2204.5 584.687C2165.32 557.23 2117.85 538.268 2085.14 538.268V540.768V543.268C2116.4 543.268 2162.86 561.612 2201.63 588.781C2220.97 602.333 2238.25 617.981 2250.66 634.455C2263.1 650.949 2270.52 668.082 2270.52 684.661H2273.02ZM2273.02 713.973H2275.52C2275.52 700.095 2267.43 684.535 2254.74 669.223C2241.99 653.827 2224.28 638.316 2204.36 624.484C2164.62 596.889 2115.47 575.574 2078.48 575.574V578.074V580.574C2113.98 580.574 2162.1 601.228 2201.51 628.591C2221.16 642.24 2238.5 657.456 2250.89 672.413C2263.36 687.452 2270.52 701.871 2270.52 713.973H2273.02ZM2328.99 732.626H2331.49C2331.49 635.928 2292.62 573.244 2243.11 534.796C2193.7 496.433 2133.85 482.31 2091.81 482.31V484.81V487.31C2132.91 487.31 2191.65 501.165 2240.04 538.746C2288.33 576.242 2326.49 637.466 2326.49 732.626H2328.99ZM1774.68 726.682H1777.18C1777.18 643.342 1818.77 584.891 1869.31 547.192C1919.96 509.42 1979.4 492.639 2014.52 492.639V490.139V487.639C1978.22 487.639 1917.75 504.832 1866.32 543.184C1814.81 581.607 1772.18 641.429 1772.18 726.682H1774.68ZM1774.68 726.682L1774.66 729.182L1833.28 729.745L1833.31 727.245L1833.33 724.745L1774.7 724.182L1774.68 726.682ZM1833.31 727.245L1833.28 729.745L1838.61 729.796L1838.64 727.297L1838.66 724.797L1833.33 724.745L1833.31 727.245ZM1833.31 727.245H1835.81C1835.81 656.103 1864.49 610.232 1902.36 582.072C1940.33 553.828 1987.74 543.268 2025.18 543.268V540.768V538.268C1986.94 538.268 1938.41 549.026 1899.37 578.06C1860.22 607.178 1830.81 654.546 1830.81 727.245H1833.31ZM1833.31 727.245H1835.81C1835.81 685.654 1858.21 651.37 1893.58 625.553C1928.97 599.715 1977.19 582.506 2028.2 575.219L2027.85 572.744L2027.49 570.27C1975.91 577.639 1926.85 595.071 1890.63 621.514C1854.38 647.979 1830.81 683.618 1830.81 727.245H1833.31ZM2027.85 572.744L2025.42 573.351L2028.09 584.01L2030.51 583.403L2032.94 582.797L2030.27 572.138L2027.85 572.744ZM2030.51 583.403L2030.79 585.888L2078.76 580.559L2078.48 578.074L2078.21 575.589L2030.24 580.918L2030.51 583.403ZM2085.14 540.768L2082.68 540.329L2076.02 577.634L2078.48 578.074L2080.94 578.513L2087.61 541.208L2085.14 540.768ZM2085.14 540.768L2087.63 541.064L2094.29 485.105L2091.81 484.81L2089.32 484.514L2082.66 540.473L2085.14 540.768ZM2091.81 484.81L2094.28 485.18L2102.27 431.887L2099.8 431.516L2097.33 431.145L2089.33 484.439L2091.81 484.81ZM2099.8 431.516L2099.88 429.017L2014.6 426.352L2014.52 428.851L2014.45 431.35L2099.72 434.014L2099.8 431.516ZM2014.52 428.851H2012.02V489.631H2014.52H2017.02V428.851H2014.52ZM2014.52 489.631L2012.08 490.142L2022.74 541.278L2025.18 540.768L2027.63 540.258L2016.97 489.121L2014.52 489.631ZM2025.18 540.768L2022.69 540.976L2025.36 572.952L2027.85 572.744L2030.34 572.537L2027.67 540.56L2025.18 540.768ZM1561.49 724.632L1561.46 727.132L1576.12 727.273L1576.14 724.773L1576.17 722.273L1561.51 722.132L1561.49 724.632ZM1576.14 724.773L1578.5 723.939C1571.07 702.923 1551.03 663.253 1516.99 628.796C1482.92 594.302 1434.68 564.915 1370.94 564.915V567.415V569.915C1432.99 569.915 1480.02 598.485 1513.44 632.309C1546.89 666.17 1566.56 705.179 1573.79 725.606L1576.14 724.773ZM1576.14 724.773H1578.64C1578.64 654.434 1540.51 606.41 1496.14 576.078C1451.86 545.812 1401.08 532.939 1374.94 532.939V535.439V537.939C1399.97 537.939 1449.78 550.447 1493.32 580.205C1536.75 609.897 1573.64 656.541 1573.64 724.773H1576.14ZM1576.14 724.773L1576.12 727.273L1617.42 727.67L1617.45 725.17L1617.47 722.67L1576.17 722.273L1576.14 724.773ZM1617.45 725.17L1617.42 727.67L1774.66 729.182L1774.68 726.682L1774.7 724.182L1617.47 722.67L1617.45 725.17ZM1617.45 725.17H1619.95C1619.95 632.101 1578.34 571.298 1528.2 533.836C1478.19 496.463 1419.7 482.31 1385.6 482.31V484.81V487.31C1418.66 487.31 1476.09 501.135 1525.21 537.842C1574.21 574.46 1614.95 633.838 1614.95 725.17H1617.45ZM1144.42 729.961L1144.53 727.464L1121.88 726.452L1121.77 728.949L1121.66 731.447L1144.31 732.459L1144.42 729.961ZM1121.77 728.949L1124.22 729.473C1135.34 677.608 1174.43 637.706 1216.49 610.695C1237.5 597.209 1259.15 586.997 1278.25 580.162C1297.4 573.308 1313.79 569.915 1324.31 569.915V567.415V564.915C1312.96 564.915 1295.95 568.517 1276.57 575.454C1257.13 582.411 1235.13 592.787 1213.79 606.488C1171.18 633.849 1130.85 674.714 1119.33 728.425L1121.77 728.949ZM1121.77 728.949H1124.27C1124.27 663.21 1160.44 615.503 1203.07 584.124C1245.79 552.676 1294.58 537.939 1318.98 537.939V535.439V532.939C1293.27 532.939 1243.46 548.179 1200.1 580.098C1156.65 612.086 1119.27 661.133 1119.27 728.949H1121.77ZM1121.77 728.949L1121.88 726.452L1057.92 723.593L1057.81 726.091L1057.7 728.588L1121.66 731.447L1121.77 728.949ZM1057.81 726.091L1057.92 723.593L906.023 716.805L905.912 719.302L905.8 721.8L1057.7 728.588L1057.81 726.091ZM1057.81 726.091H1060.31C1060.31 631.939 1115.92 571.638 1175.32 534.747C1205.02 516.301 1235.61 503.76 1260.49 495.833C1285.47 487.876 1304.45 484.645 1310.98 484.645V482.145V479.645C1303.65 479.645 1284.06 483.075 1258.97 491.069C1233.79 499.092 1202.81 511.79 1172.69 530.499C1112.43 567.919 1055.31 629.59 1055.31 726.091H1057.81ZM1310.98 482.145L1313.44 481.677L1302.78 425.718L1300.32 426.186L1297.87 426.654L1308.53 482.613L1310.98 482.145ZM1300.32 426.186V428.686H1385.6V426.186V423.686H1300.32V426.186ZM1385.6 426.186H1383.1V484.81H1385.6H1388.1V426.186H1385.6ZM1374.94 535.439L1377.39 535.954L1388.05 485.325L1385.6 484.81L1383.15 484.294L1372.49 534.924L1374.94 535.439ZM1374.94 535.439L1372.46 535.129L1368.46 567.105L1370.94 567.415L1373.42 567.725L1377.42 535.749L1374.94 535.439ZM1370.94 567.415L1368.71 566.297L1366.04 571.626L1368.28 572.744L1370.51 573.862L1373.18 568.533L1370.94 567.415ZM1368.28 572.744L1367.94 570.268L1329.29 575.597L1329.64 578.074L1329.98 580.55L1368.62 575.221L1368.28 572.744ZM1329.64 578.074L1331.87 576.956L1326.54 566.297L1324.31 567.415L1322.07 568.533L1327.4 579.192L1329.64 578.074ZM1324.31 567.415L1326.77 567.004L1321.44 535.028L1318.98 535.439L1316.51 535.85L1321.84 567.826L1324.31 567.415ZM1310.98 482.145L1308.51 482.516L1316.5 535.81L1318.98 535.439L1321.45 535.068L1313.45 481.774L1310.98 482.145ZM2973.9 1361.49H2976.4V788.585H2973.9H2971.4V1361.49H2973.9ZM2.5 2.5H0V7.82939H2.5H5V2.5H2.5ZM2.5 2.5V5H7.82986V2.5V0H2.5V2.5ZM4093.17 2310.12V2312.62H4098.5V2310.12V2307.62H4093.17V2310.12ZM4098.5 2310.12H4101V2304.8H4098.5H4096V2310.12H4098.5Z" stroke="rgba(0,47,255,1)" stroke-width="5" stroke-linejoin="round"/>
</svg>
