<svg width="4101" height="2313" viewBox="0 0 4101 2313" fill="none" xmlns="http://www.w3.org/2000/svg">
<path d="M434.219 2128.93H738.021L746.016 1654.61H450.209L434.219 2128.93Z" fill="#000000"/>
<path d="M1164.41 2128.93H1460.22L1468.21 1659.94H1177.73L1164.41 2128.93Z" fill="#000000"/>
<path d="M1883.94 2131.59H2179.75V1657.27H1886.61L1883.94 2131.59Z" fill="#000000"/>
<path d="M2598.14 2128.93L2893.95 2123.6L2888.62 1659.94H2598.14V2128.93Z" fill="#000000"/>
<path d="M3307.02 2128.93H3592.16V1665.27H3307.02V2128.93Z" fill="#000000"/>
<path d="M3232.4 788.585V1369.49L3669.45 1374.82L3680.11 793.914L3676.32 781.923L3645.46 804.573L3632.14 791.249L3642.8 775.261C3642.8 692.656 3560.18 583.403 3470.91 583.403H3466.75L3458.92 596.727L3416.28 598.059V592.73C3324.34 592.73 3268.37 642.026 3236.39 692.656L3227.07 743.157L3240.39 743.285V748.614L3227.07 788.585H3232.4Z" fill="#000000"/>
<path d="M2531.52 783.255V1361.49H2973.9V788.585L2962.51 798.903L2947.25 780.59V775.261L2961.91 740.62L2973.9 740.735C2973.9 684.661 2855.04 578.074 2768.7 578.074H2718.07V554.092C2619.46 554.092 2542.18 618.044 2536.85 684.661V732.626H2542.18V740.62L2510.2 783.255H2531.52Z" fill="#000000"/>
<path d="M1838.64 727.297L1822.65 769.932L1817.32 1361.49L2265.03 1358.83L2272.8 796.579L2246.37 759.273L2262.05 732.626L2273.02 713.973C2273.02 662.012 2150.97 578.074 2078.48 578.074L2030.51 583.403L2027.85 572.744C1925.25 587.4 1833.31 642.026 1833.31 727.245L1838.64 727.297Z" fill="#000000"/>
<path d="M1124.44 777.926L1144.42 729.961L1121.77 728.949C1144.42 623.374 1280.6 567.415 1324.31 567.415L1329.64 578.074L1368.28 572.744L1370.94 567.415C1496.73 567.415 1561.49 683.329 1576.14 724.773L1561.49 724.632V764.602L1564.15 767.267L1545.5 1353.5H1103.12L1116.44 777.926H1124.44Z" fill="#000000"/>
<path d="M427.557 755.276L412.9 775.261L398.242 767.267H396.91L394.245 1332.18L380.92 1353.5L833.959 1356.16L855.278 769.932V759.273L841.953 727.297L857.943 709.976C857.943 648.688 772.665 580.738 671.621 562.086L671.475 567.415L619.432 580.738L616.767 571.197C469.026 583.3 427.557 690.102 427.557 713.973L424.548 748.614L427.557 755.276Z" fill="#000000"/>
</svg>
